<svg width="1557" height="670" viewBox="0 0 1557 670" fill="none" xmlns="http://www.w3.org/2000/svg">
<path d="M1413.77 173.266C1421.77 139.266 1456.92 107.686 1461.77 118.766C1465.27 126.766 1457.77 143.266 1461.77 143.266C1461.77 143.266 1467.83 139.424 1470.77 138.266C1489.77 130.766 1507.27 129.723 1521.77 136.766C1539.27 145.266 1552.27 160.766 1555.27 181.266C1557.5 196.529 1557.27 209.266 1556.27 225.766C1555.27 242.266 1548.27 330.766 1554.27 351.266C1555.38 355.06 1549.34 357.458 1545.77 355.766C1536.27 351.266 1526.27 334.766 1520.77 315.766C1517.72 305.239 1513.88 280.611 1511.27 256.766C1508.66 232.92 1511.21 195.284 1506.27 188.266C1499.32 178.388 1495.73 176.952 1483.77 175.266C1472.45 173.671 1455.73 179.678 1454.77 185.266C1449.27 217.266 1449.49 245.266 1443.27 279.266C1437.74 309.46 1427.77 358.562 1416.27 353.266C1407.58 349.266 1404.83 315.923 1403.27 291.766C1400.27 245.266 1403.13 218.49 1413.77 173.266Z" fill="white"/>
<path fill-rule="evenodd" clip-rule="evenodd" d="M1285.27 117.266C1291.51 113.52 1305.27 128.141 1308.27 127.766C1312.84 127.195 1317.27 122.312 1323.27 121.766C1330.27 121.13 1344.16 121.452 1347.77 129.266C1350.47 135.115 1346.77 139.266 1343.77 143.266C1339.08 149.515 1332.21 154.309 1333.27 155.766C1337.27 161.269 1379.27 219.267 1379.27 261.766C1379.27 298.766 1372.77 323.646 1346.77 340.766C1332.27 350.311 1319.56 354.792 1302.27 353.266C1268.27 350.266 1238.06 321.273 1233.77 283.266C1230.27 252.266 1232.77 232.766 1242.27 201.266C1254.74 159.908 1286.87 141.193 1286.27 138.766C1285.27 134.766 1283.27 132.766 1282.77 127.766C1282.42 124.284 1282.77 118.766 1285.27 117.266ZM1316.27 172.266C1312.77 172.266 1269.27 234.266 1273.27 275.266C1275.71 300.266 1286.27 322.266 1306.77 322.266C1330.79 322.266 1344.82 297.266 1349.27 273.766C1352.96 254.266 1347.27 228.266 1340.27 212.266C1332.73 195.047 1319.27 172.266 1316.27 172.266Z" fill="white"/>
<path d="M1153.27 286.766C1157.27 240.766 1170.27 199.766 1171.77 155.266C1171.99 148.727 1171.17 141.26 1169.27 133.766C1167.74 127.766 1163.21 123.322 1163.77 121.266C1165.27 115.766 1176.77 116.086 1184.77 118.266C1195.77 121.266 1203.34 128.501 1209.27 139.766C1219.27 158.766 1218.79 189.266 1216.77 199.266C1206.77 248.766 1201.27 260.865 1189.27 301.766C1186.27 311.994 1181.12 327.766 1180.27 334.266C1179.28 341.766 1178.5 352.769 1174.27 353.766C1160.77 356.942 1150.9 313.969 1153.27 286.766Z" fill="white"/>
<path d="M1177.27 7.76584C1176.41 4.76582 1178.27 1.87089 1181.77 0.765871C1191.27 -2.23393 1197.54 4.06113 1203.77 11.2659C1213.27 22.2658 1219.22 28.7367 1224.77 42.2659C1231.14 57.8008 1234.77 76.7659 1231.27 84.7659C1225.59 97.73 1213.1 104.767 1199.27 101.766C1186.56 99.0074 1178.22 92.0332 1177.27 76.7659C1176.77 68.7658 1180.77 47.3028 1180.77 33.7658C1180.77 23.2658 1179.98 17.2658 1177.27 7.76584Z" fill="white"/>
<path d="M1039.26 126.766C1062.26 118.266 1094.26 113.68 1107.76 119.266C1116.58 122.915 1120.95 130.747 1120.26 140.266C1119.57 149.816 1114.17 157.473 1104.76 159.266C1094.27 161.266 1083.27 160.266 1068.26 162.266C1051.51 164.498 1032.9 172.633 1032.26 186.266C1031.77 196.766 1043.4 204.493 1055.27 209.766C1068.77 215.766 1106.57 209.766 1124.76 222.766C1138.68 232.711 1140.67 251.819 1131.76 266.766C1116.27 292.766 1086.77 304.266 1055.26 323.266C1037.95 333.706 1026.77 338.266 1008.27 349.266C996.11 356.495 987.505 363.634 976.766 366.766C972.337 368.057 970.975 361.754 971.266 358.266C971.768 352.266 984.536 334.576 996.261 322.266C1016.26 301.266 1041.35 285.752 1058.26 274.266C1084.76 256.266 1099.77 249.266 1100.77 242.266C1101.55 236.766 1058.26 238.266 1032.26 226.266C1012.1 216.959 999.955 200.401 1001.76 178.266C1003.76 153.766 1015.6 135.511 1039.26 126.766Z" fill="white"/>
<path d="M950.267 135.266C950.587 130.777 948.266 117.377 953.766 116.766C959.266 116.155 974.767 123.766 979.267 142.766C983.767 161.766 983.017 186.266 979.267 204.266C974.268 228.266 967.55 246.792 957.767 273.266C949.268 296.266 932.607 337.908 931.268 343.266C929.268 351.266 923.397 355.766 920.768 353.266C912.768 345.66 911.496 335.51 910.267 320.766C907.266 284.766 912.629 259.742 924.268 224.266C934.766 192.266 948.766 156.266 950.267 135.266Z" fill="white"/>
<path fill-rule="evenodd" clip-rule="evenodd" d="M404.266 120.266C430.266 115.078 450.267 113.266 473.766 121.266C491.283 127.229 502.04 136.342 505.266 153.766C507.766 167.266 501.055 185.566 487.266 198.266C468.266 215.766 456.766 218.766 435.266 226.266C427.262 229.058 418.266 229.266 413.766 230.266C412.555 230.535 412.938 232.515 413.766 233.266C461.766 276.766 483.47 337.086 503.766 360.766C506.766 364.266 496.767 368.034 492.266 366.266C481.863 362.179 476.292 360.805 468.266 353.266C435.267 322.266 420.266 290.766 391.766 259.766C390.95 258.878 388.806 258.853 388.766 260.266C387.766 295.766 377.766 340.266 358.766 352.766C356.677 354.14 353.698 351.306 353.767 348.266C354.767 304.266 355.674 277.766 359.766 232.766C360.203 227.969 347.966 223.266 345.766 217.766C344.634 214.935 344.767 214.266 348.766 214.266H361.766C362.261 214.266 362.766 204.766 364.766 191.266C366.766 177.768 370.163 167.163 369.266 167.266C360.766 168.266 358.498 167.266 353.266 163.266C344.766 156.766 348.593 143.692 353.266 139.766C365.766 129.266 383.423 124.425 404.266 120.266ZM469.267 150.766C461.767 149.266 425.27 153.269 398.268 161.766C396.268 162.396 392.768 206.8 393.767 206.766C415.268 205.767 427.425 204.918 446.267 195.766C463.767 187.266 477.767 169.266 478.267 162.266C478.768 155.266 476.767 152.266 469.267 150.766Z" fill="white"/>
<path fill-rule="evenodd" clip-rule="evenodd" d="M233.768 126.266C242.768 118.357 250.268 114.765 263.268 115.265C272.085 115.604 277.31 118.753 283.768 124.765C298.268 138.265 301.899 149.368 309.268 167.265C322.032 198.265 322.116 228.766 319.768 252.266C317.101 278.954 312.768 294.766 302.268 318.266C295.018 334.493 284.768 353.265 274.768 355.765C271.714 356.529 270.768 352.415 270.768 349.266C270.768 341.266 274.268 326.765 275.768 314.765C277.768 298.768 279.267 272.874 278.268 272.766C263.268 271.266 244.268 267.266 232.268 265.766C230.779 265.58 241.525 324.289 234.768 338.766C231.267 346.266 219.768 353.265 213.268 352.265C203.268 350.727 195.268 342.266 192.768 326.766C189.005 303.435 187.617 279.312 189.767 251.266C192.076 221.14 195.426 199.266 204.268 175.266C211.839 154.716 217.268 140.766 233.768 126.266ZM249.769 168.266C239.701 168.895 233.81 180.766 232.269 187.266C227.765 206.265 227.269 238.727 228.769 238.766C247.768 239.266 262.769 245.766 277.269 246.766C278.268 246.835 275.769 219.266 270.769 200.266C266.909 185.601 257.77 167.767 249.769 168.266Z" fill="white"/>
<path fill-rule="evenodd" clip-rule="evenodd" d="M56.2674 68.2658C73.7673 61.7658 93.7672 57.7658 107.767 60.7658C121.767 63.7658 140.267 75.2659 149.266 89.7658C158.266 104.266 159.766 119.266 159.766 132.766C159.766 138.428 159.767 144.266 157.767 148.766C156.258 152.162 152.984 158.242 147.266 162.266C133.767 171.766 117.767 175.766 112.267 179.766C111.162 180.57 111.544 182.654 112.766 183.266C127.766 190.766 139.262 201.239 149.266 218.266C155.436 228.766 159.659 236.684 160.267 249.766C161.267 271.266 157.766 288.266 149.266 306.266C135.99 334.38 124.266 346.945 97.2664 364.266C78.5962 376.243 60.2673 377.266 41.7674 373.766C31.8318 371.886 20.2671 362.766 11.2674 351.266C7.31167 346.211 5.76645 342.766 4.26735 337.266C2.76828 331.766 2.26759 327.266 1.26735 320.266C0.267126 313.266 -0.396926 299.533 0.267353 286.266C1.26877 266.266 2.55036 251.291 4.26735 235.266C6.77301 211.88 8.63021 187.918 14.2674 156.766C16.0833 146.731 21.7672 134.199 26.7674 134.766C33.2669 135.504 34.3509 147.601 35.2674 156.766C36.7674 171.766 35.4925 193.54 36.7674 192.266C41.2679 187.766 47.7561 183.799 52.7674 180.766C71.7674 169.266 82.815 165.472 105.767 156.766C120.268 151.266 127.768 147.766 141.267 141.266C143.267 140.303 144.574 137.185 143.767 134.766C141.767 128.766 138.767 124.766 132.767 119.766C121.281 110.194 109.266 106.766 98.2664 105.766C87.2666 104.766 65.1889 105.806 46.2674 115.266C41.2671 117.766 36.7664 120.766 29.7664 120.766C23.8152 120.766 21.2674 115.266 21.2674 109.766C21.2674 104.265 26.7676 80.2656 56.2674 68.2658ZM106.267 226.766C86.8849 217.368 65.2668 217.764 35.7674 222.266C34.2673 222.495 32.1566 248.969 30.7674 262.266C28.2433 286.424 24.1966 317.361 26.2674 318.766C43.267 330.266 49.9602 332.38 66.2674 333.766C92.1703 335.967 111.766 330.266 126.766 312.266C139.539 296.938 145.452 278.766 140.266 262.266C134.636 244.352 122.766 234.766 106.267 226.766Z" fill="white"/>
<path d="M718.267 20.7658C716.373 19.5766 714.176 20.1033 712.267 21.2658C643.266 63.2658 593.767 105.766 544.766 146.266C542.509 148.132 543.002 151.439 543.767 154.266C566.766 239.266 588.267 291.266 610.767 348.266C611.943 351.245 614.065 353.188 617.267 353.266C699.268 355.266 741.268 355.266 822.767 350.766C826.903 350.538 829.342 347.655 830.767 343.766C856.766 272.766 868.267 228.266 889.267 150.266C889.927 147.815 890.76 143.337 888.767 141.766C820.267 87.766 782.767 61.2659 718.267 20.7658Z" fill="white"/>
<path d="M786.268 132.266C763.268 102.766 738.269 74.2658 735.768 74.2658C732.268 74.2658 707.767 97.7658 688.268 106.266C669.268 114.548 658.603 116.171 640.269 124.766C624.27 132.266 600.991 143.766 600.768 145.766C600.545 147.766 614.766 186.266 615.767 208.266C616.704 228.842 617.252 245.57 618.769 262.766C620.269 279.766 622.47 295.266 624.768 296.766C626.269 297.745 643.691 295.931 655.768 296.766C677.269 298.252 693.021 300.01 712.769 306.766C722.269 310.016 737.769 312.626 750.769 316.266C760.491 318.988 776.943 322.561 778.268 321.766C780.767 320.266 784.542 292.381 792.267 275.266C800.768 256.433 806.365 247.632 818.767 230.266C828.766 216.266 842.769 189.266 844.268 182.766C844.845 180.266 809.269 161.766 786.268 132.266Z" fill="url(#paint0_linear_9_35612)"/>
<path d="M275.896 529.016C269.23 529.016 262.688 527.891 256.271 525.641C249.855 523.307 244.021 519.766 238.771 515.016L250.146 501.391C254.146 504.641 258.23 507.224 262.396 509.141C266.646 511.057 271.271 512.016 276.271 512.016C280.271 512.016 283.355 511.307 285.521 509.891C287.771 508.391 288.896 506.349 288.896 503.766V503.516C288.896 502.266 288.646 501.182 288.146 500.266C287.73 499.266 286.855 498.349 285.521 497.516C284.271 496.682 282.48 495.849 280.146 495.016C277.896 494.182 274.938 493.307 271.271 492.391C266.855 491.307 262.855 490.099 259.271 488.766C255.688 487.432 252.646 485.807 250.146 483.891C247.646 481.891 245.688 479.432 244.271 476.516C242.938 473.599 242.271 469.974 242.271 465.641V465.391C242.271 461.391 243.021 457.807 244.521 454.641C246.021 451.391 248.105 448.599 250.771 446.266C253.521 443.932 256.771 442.141 260.521 440.891C264.271 439.641 268.396 439.016 272.896 439.016C279.313 439.016 285.188 439.974 290.521 441.891C295.938 443.807 300.896 446.557 305.396 450.141L295.396 464.641C291.48 461.974 287.646 459.891 283.896 458.391C280.146 456.807 276.396 456.016 272.646 456.016C268.896 456.016 266.063 456.766 264.146 458.266C262.313 459.682 261.396 461.474 261.396 463.641V463.891C261.396 465.307 261.646 466.557 262.146 467.641C262.73 468.641 263.73 469.557 265.146 470.391C266.563 471.224 268.48 472.016 270.896 472.766C273.396 473.516 276.521 474.391 280.271 475.391C284.688 476.557 288.605 477.891 292.021 479.391C295.521 480.807 298.438 482.557 300.771 484.641C303.188 486.641 304.98 489.016 306.146 491.766C307.396 494.516 308.021 497.807 308.021 501.641V501.891C308.021 506.224 307.23 510.099 305.646 513.516C304.063 516.849 301.855 519.682 299.021 522.016C296.188 524.266 292.813 526.016 288.896 527.266C284.98 528.432 280.646 529.016 275.896 529.016Z" fill="white"/>
<path d="M372.478 511.516C376.311 511.516 379.853 510.807 383.103 509.391C386.353 507.974 389.103 506.016 391.353 503.516C393.686 501.016 395.478 498.141 396.728 494.891C398.061 491.557 398.728 488.016 398.728 484.266V484.016C398.728 480.266 398.061 476.724 396.728 473.391C395.478 470.057 393.644 467.141 391.228 464.641C388.894 462.141 386.103 460.182 382.853 458.766C379.603 457.266 376.061 456.516 372.228 456.516C368.311 456.516 364.728 457.224 361.478 458.641C358.311 460.057 355.561 462.016 353.228 464.516C350.978 467.016 349.186 469.932 347.853 473.266C346.603 476.516 345.978 480.016 345.978 483.766V484.016C345.978 487.766 346.603 491.307 347.853 494.641C349.186 497.974 351.019 500.891 353.353 503.391C355.769 505.891 358.561 507.891 361.728 509.391C364.978 510.807 368.561 511.516 372.478 511.516ZM372.228 529.266C365.478 529.266 359.269 528.099 353.603 525.766C347.936 523.349 343.019 520.141 338.853 516.141C334.769 512.057 331.561 507.307 329.228 501.891C326.978 496.391 325.853 490.516 325.853 484.266V484.016C325.853 477.766 327.019 471.932 329.353 466.516C331.686 461.016 334.894 456.224 338.978 452.141C343.144 447.974 348.061 444.724 353.728 442.391C359.478 439.974 365.728 438.766 372.478 438.766C379.228 438.766 385.436 439.974 391.103 442.391C396.769 444.724 401.644 447.932 405.728 452.016C409.894 456.016 413.103 460.766 415.353 466.266C417.686 471.682 418.853 477.516 418.853 483.766V484.016C418.853 490.266 417.686 496.141 415.353 501.641C413.019 507.057 409.769 511.849 405.603 516.016C401.519 520.099 396.603 523.349 390.853 525.766C385.186 528.099 378.978 529.266 372.228 529.266Z" fill="white"/>
<path d="M440.929 440.266H458.679L499.679 494.141V440.266H518.679V527.766H502.304L459.929 472.141V527.766H440.929V440.266Z" fill="white"/>
<path d="M586.809 529.266C579.975 529.266 573.725 528.141 568.059 525.891C562.475 523.641 557.642 520.516 553.559 516.516C549.559 512.516 546.434 507.766 544.184 502.266C541.934 496.766 540.809 490.766 540.809 484.266V484.016C540.809 477.766 541.934 471.932 544.184 466.516C546.517 461.016 549.725 456.224 553.809 452.141C557.892 447.974 562.725 444.724 568.309 442.391C573.892 439.974 580.017 438.766 586.684 438.766C590.6 438.766 594.142 439.057 597.309 439.641C600.559 440.141 603.559 440.891 606.309 441.891C609.059 442.891 611.642 444.141 614.059 445.641C616.475 447.141 618.809 448.849 621.059 450.766L608.934 465.391C607.267 463.974 605.6 462.724 603.934 461.641C602.267 460.557 600.517 459.641 598.684 458.891C596.934 458.141 595.017 457.557 592.934 457.141C590.85 456.724 588.559 456.516 586.059 456.516C582.559 456.516 579.267 457.266 576.184 458.766C573.184 460.182 570.517 462.141 568.184 464.641C565.934 467.057 564.142 469.932 562.809 473.266C561.559 476.516 560.934 480.016 560.934 483.766V484.016C560.934 488.016 561.559 491.724 562.809 495.141C564.142 498.474 565.975 501.391 568.309 503.891C570.725 506.391 573.517 508.349 576.684 509.766C579.934 511.099 583.517 511.766 587.434 511.766C594.6 511.766 600.642 510.016 605.559 506.516V494.016H586.184V477.391H624.184V515.391C619.684 519.224 614.309 522.516 608.059 525.266C601.892 527.932 594.809 529.266 586.809 529.266Z" fill="white"/>
<path d="M731.182 529.266C724.765 529.266 718.807 528.099 713.307 525.766C707.807 523.432 703.057 520.266 699.057 516.266C695.057 512.182 691.932 507.391 689.682 501.891C687.432 496.391 686.307 490.516 686.307 484.266V484.016C686.307 477.766 687.432 471.932 689.682 466.516C691.932 461.016 695.057 456.224 699.057 452.141C703.057 447.974 707.848 444.724 713.432 442.391C719.015 439.974 725.182 438.766 731.932 438.766C736.015 438.766 739.723 439.099 743.057 439.766C746.473 440.432 749.557 441.349 752.307 442.516C755.057 443.682 757.598 445.099 759.932 446.766C762.265 448.432 764.432 450.266 766.432 452.266L754.182 466.391C750.765 463.307 747.265 460.891 743.682 459.141C740.182 457.391 736.223 456.516 731.807 456.516C728.14 456.516 724.723 457.224 721.557 458.641C718.473 460.057 715.807 462.016 713.557 464.516C711.307 467.016 709.557 469.932 708.307 473.266C707.057 476.516 706.432 480.016 706.432 483.766V484.016C706.432 487.766 707.057 491.307 708.307 494.641C709.557 497.974 711.265 500.891 713.432 503.391C715.682 505.891 718.348 507.891 721.432 509.391C724.598 510.807 728.057 511.516 731.807 511.516C736.807 511.516 741.015 510.599 744.432 508.766C747.932 506.932 751.39 504.432 754.807 501.266L767.057 513.641C764.807 516.057 762.473 518.224 760.057 520.141C757.64 522.057 754.973 523.724 752.057 525.141C749.223 526.474 746.098 527.474 742.682 528.141C739.265 528.891 735.432 529.266 731.182 529.266Z" fill="white"/>
<path d="M830.217 511.516C834.05 511.516 837.592 510.807 840.842 509.391C844.092 507.974 846.842 506.016 849.092 503.516C851.425 501.016 853.217 498.141 854.467 494.891C855.8 491.557 856.467 488.016 856.467 484.266V484.016C856.467 480.266 855.8 476.724 854.467 473.391C853.217 470.057 851.383 467.141 848.967 464.641C846.633 462.141 843.842 460.182 840.592 458.766C837.342 457.266 833.8 456.516 829.967 456.516C826.05 456.516 822.467 457.224 819.217 458.641C816.05 460.057 813.3 462.016 810.967 464.516C808.717 467.016 806.925 469.932 805.592 473.266C804.342 476.516 803.717 480.016 803.717 483.766V484.016C803.717 487.766 804.342 491.307 805.592 494.641C806.925 497.974 808.758 500.891 811.092 503.391C813.508 505.891 816.3 507.891 819.467 509.391C822.717 510.807 826.3 511.516 830.217 511.516ZM829.967 529.266C823.217 529.266 817.008 528.099 811.342 525.766C805.675 523.349 800.758 520.141 796.592 516.141C792.508 512.057 789.3 507.307 786.967 501.891C784.717 496.391 783.592 490.516 783.592 484.266V484.016C783.592 477.766 784.758 471.932 787.092 466.516C789.425 461.016 792.633 456.224 796.717 452.141C800.883 447.974 805.8 444.724 811.467 442.391C817.217 439.974 823.467 438.766 830.217 438.766C836.967 438.766 843.175 439.974 848.842 442.391C854.508 444.724 859.383 447.932 863.467 452.016C867.633 456.016 870.842 460.766 873.092 466.266C875.425 471.682 876.592 477.516 876.592 483.766V484.016C876.592 490.266 875.425 496.141 873.092 501.641C870.758 507.057 867.508 511.849 863.342 516.016C859.258 520.099 854.342 523.349 848.592 525.766C842.925 528.099 836.717 529.266 829.967 529.266Z" fill="white"/>
<path d="M898.668 440.266H916.418L957.418 494.141V440.266H976.418V527.766H960.043L917.668 472.141V527.766H898.668V440.266Z" fill="white"/>
<path d="M1022.8 458.016H996.173V440.266H1068.67V458.016H1042.05V527.766H1022.8V458.016Z" fill="white"/>
<path d="M1088.48 440.266H1154.48V457.391H1107.6V475.141H1148.85V492.266H1107.6V510.641H1155.1V527.766H1088.48V440.266Z" fill="white"/>
<path d="M1208.34 529.016C1201.68 529.016 1195.13 527.891 1188.72 525.641C1182.3 523.307 1176.47 519.766 1171.22 515.016L1182.59 501.391C1186.59 504.641 1190.68 507.224 1194.84 509.141C1199.09 511.057 1203.72 512.016 1208.72 512.016C1212.72 512.016 1215.8 511.307 1217.97 509.891C1220.22 508.391 1221.34 506.349 1221.34 503.766V503.516C1221.34 502.266 1221.09 501.182 1220.59 500.266C1220.18 499.266 1219.3 498.349 1217.97 497.516C1216.72 496.682 1214.93 495.849 1212.59 495.016C1210.34 494.182 1207.38 493.307 1203.72 492.391C1199.3 491.307 1195.3 490.099 1191.72 488.766C1188.13 487.432 1185.09 485.807 1182.59 483.891C1180.09 481.891 1178.13 479.432 1176.72 476.516C1175.38 473.599 1174.72 469.974 1174.72 465.641V465.391C1174.72 461.391 1175.47 457.807 1176.97 454.641C1178.47 451.391 1180.55 448.599 1183.22 446.266C1185.97 443.932 1189.22 442.141 1192.97 440.891C1196.72 439.641 1200.84 439.016 1205.34 439.016C1211.76 439.016 1217.63 439.974 1222.97 441.891C1228.38 443.807 1233.34 446.557 1237.84 450.141L1227.84 464.641C1223.93 461.974 1220.09 459.891 1216.34 458.391C1212.59 456.807 1208.84 456.016 1205.09 456.016C1201.34 456.016 1198.51 456.766 1196.59 458.266C1194.76 459.682 1193.84 461.474 1193.84 463.641V463.891C1193.84 465.307 1194.09 466.557 1194.59 467.641C1195.18 468.641 1196.18 469.557 1197.59 470.391C1199.01 471.224 1200.93 472.016 1203.34 472.766C1205.84 473.516 1208.97 474.391 1212.72 475.391C1217.13 476.557 1221.05 477.891 1224.47 479.391C1227.97 480.807 1230.88 482.557 1233.22 484.641C1235.63 486.641 1237.43 489.016 1238.59 491.766C1239.84 494.516 1240.47 497.807 1240.47 501.641V501.891C1240.47 506.224 1239.68 510.099 1238.09 513.516C1236.51 516.849 1234.3 519.682 1231.47 522.016C1228.63 524.266 1225.26 526.016 1221.34 527.266C1217.43 528.432 1213.09 529.016 1208.34 529.016Z" fill="white"/>
<path d="M1282.55 458.016H1255.92V440.266H1328.42V458.016H1301.8V527.766H1282.55V458.016Z" fill="white"/>
<path d="M447.947 654.566C443.627 654.566 440.027 653.713 437.147 652.006C434.267 650.246 431.894 648.086 430.027 645.526L436.507 638.886C438.16 640.966 439.84 642.593 441.547 643.766C443.307 644.886 445.387 645.446 447.787 645.446C450.454 645.446 452.587 644.566 454.187 642.806C455.84 640.993 456.667 638.219 456.667 634.486V597.766H466.747V634.726C466.747 638.086 466.294 640.993 465.387 643.446C464.48 645.899 463.2 647.953 461.547 649.606C459.894 651.259 457.92 652.513 455.627 653.366C453.334 654.166 450.774 654.566 447.947 654.566ZM483.994 597.766H493.834V653.766H483.994V597.766ZM512.025 597.766H521.145L551.145 636.486V597.766H560.825V653.766H552.585L521.705 613.926V653.766H512.025V597.766ZM576.428 646.486L609.468 606.486H577.468V597.766H622.268V605.046L589.228 645.046H622.268V653.766H576.428V646.486ZM637.8 597.766H647.64V621.046H674.36V597.766H684.2V653.766H674.36V630.166H647.64V653.766H637.8V597.766ZM728.661 645.686C731.435 645.686 733.968 645.179 736.261 644.166C738.608 643.099 740.608 641.686 742.261 639.926C743.915 638.113 745.195 636.006 746.101 633.606C747.061 631.206 747.541 628.646 747.541 625.926V625.766C747.541 623.046 747.061 620.486 746.101 618.086C745.195 615.633 743.888 613.526 742.181 611.766C740.528 609.953 738.528 608.513 736.181 607.446C733.835 606.379 731.275 605.846 728.501 605.846C725.728 605.846 723.168 606.379 720.821 607.446C718.528 608.459 716.555 609.873 714.901 611.686C713.248 613.446 711.941 615.526 710.981 617.926C710.075 620.326 709.621 622.886 709.621 625.606V625.766C709.621 628.486 710.075 631.073 710.981 633.526C711.941 635.926 713.248 638.033 714.901 639.846C716.608 641.606 718.635 643.019 720.981 644.086C723.328 645.153 725.888 645.686 728.661 645.686ZM728.501 654.726C724.181 654.726 720.235 653.979 716.661 652.486C713.088 650.939 710.021 648.859 707.461 646.246C704.901 643.633 702.901 640.593 701.461 637.126C700.021 633.606 699.301 629.873 699.301 625.926V625.766C699.301 621.819 700.021 618.113 701.461 614.646C702.901 611.126 704.928 608.059 707.541 605.446C710.155 602.779 713.248 600.673 716.821 599.126C720.395 597.579 724.341 596.806 728.661 596.806C732.981 596.806 736.928 597.579 740.501 599.126C744.075 600.619 747.141 602.673 749.701 605.286C752.261 607.899 754.261 610.966 755.701 614.486C757.141 617.953 757.861 621.659 757.861 625.606V625.766C757.861 629.713 757.141 633.446 755.701 636.966C754.261 640.433 752.235 643.499 749.621 646.166C747.008 648.779 743.915 650.859 740.341 652.406C736.768 653.953 732.821 654.726 728.501 654.726ZM772.95 597.766H782.07L812.07 636.486V597.766H821.75V653.766H813.51L782.63 613.926V653.766H772.95V597.766ZM865.913 654.726C861.54 654.726 857.566 654.006 853.993 652.566C850.42 651.073 847.353 649.046 844.793 646.486C842.286 643.873 840.34 640.833 838.953 637.366C837.566 633.846 836.873 630.033 836.873 625.926V625.766C836.873 621.873 837.566 618.166 838.953 614.646C840.393 611.126 842.393 608.059 844.953 605.446C847.513 602.779 850.553 600.673 854.073 599.126C857.646 597.579 861.54 596.806 865.753 596.806C868.206 596.806 870.42 596.993 872.393 597.366C874.42 597.686 876.286 598.166 877.993 598.806C879.7 599.446 881.3 600.246 882.793 601.206C884.34 602.113 885.833 603.179 887.273 604.406L881.033 611.846C879.966 610.939 878.873 610.113 877.753 609.366C876.633 608.619 875.46 608.006 874.233 607.526C873.006 606.993 871.646 606.593 870.153 606.326C868.713 606.006 867.113 605.846 865.353 605.846C862.793 605.846 860.393 606.379 858.153 607.446C855.966 608.513 854.046 609.953 852.393 611.766C850.793 613.526 849.513 615.606 848.553 618.006C847.646 620.406 847.193 622.939 847.193 625.606V625.766C847.193 628.646 847.646 631.313 848.553 633.766C849.46 636.219 850.74 638.326 852.393 640.086C854.1 641.846 856.1 643.233 858.393 644.246C860.74 645.259 863.353 645.766 866.233 645.766C868.9 645.766 871.38 645.393 873.673 644.646C876.02 643.846 878.046 642.806 879.753 641.526V631.046H865.433V622.486H889.273V646.006C887.886 647.179 886.34 648.299 884.633 649.366C882.98 650.433 881.166 651.366 879.193 652.166C877.273 652.966 875.193 653.579 872.953 654.006C870.713 654.486 868.366 654.726 865.913 654.726ZM929.192 646.006L948.472 629.606C950.392 628.006 952.019 626.566 953.352 625.286C954.685 623.953 955.752 622.699 956.552 621.526C957.405 620.353 958.019 619.206 958.392 618.086C958.765 616.966 958.952 615.766 958.952 614.486C958.952 611.713 958.072 609.579 956.312 608.086C954.605 606.539 952.472 605.766 949.912 605.766C947.352 605.766 945.085 606.459 943.112 607.846C941.192 609.233 939.139 611.339 936.952 614.166L929.992 608.726C931.325 606.859 932.685 605.206 934.072 603.766C935.459 602.273 936.952 601.046 938.552 600.086C940.205 599.073 941.992 598.299 943.912 597.766C945.885 597.233 948.125 596.966 950.632 596.966C953.352 596.966 955.832 597.366 958.072 598.166C960.365 598.966 962.312 600.113 963.912 601.606C965.565 603.046 966.845 604.806 967.752 606.886C968.659 608.913 969.112 611.179 969.112 613.686V613.846C969.112 616.033 968.819 618.033 968.232 619.846C967.645 621.606 966.739 623.313 965.512 624.966C964.339 626.619 962.819 628.299 960.952 630.006C959.139 631.659 957.005 633.499 954.552 635.526L943.032 645.126H969.672V653.766H929.192V646.006ZM1006.57 645.846C1008.76 645.846 1010.71 645.339 1012.41 644.326C1014.17 643.259 1015.67 641.846 1016.89 640.086C1018.12 638.273 1019.05 636.166 1019.69 633.766C1020.39 631.313 1020.73 628.699 1020.73 625.926V625.766C1020.73 622.993 1020.39 620.406 1019.69 618.006C1019 615.553 1018.04 613.419 1016.81 611.606C1015.59 609.793 1014.07 608.353 1012.25 607.286C1010.49 606.219 1008.55 605.686 1006.41 605.686C1004.23 605.686 1002.25 606.219 1000.49 607.286C998.788 608.299 997.321 609.713 996.094 611.526C994.868 613.286 993.908 615.393 993.214 617.846C992.574 620.246 992.254 622.833 992.254 625.606V625.766C992.254 628.539 992.574 631.153 993.214 633.606C993.908 636.006 994.868 638.113 996.094 639.926C997.374 641.739 998.894 643.179 1000.65 644.246C1002.41 645.313 1004.39 645.846 1006.57 645.846ZM1006.41 654.726C1002.73 654.726 999.401 653.979 996.414 652.486C993.428 650.993 990.868 648.939 988.734 646.326C986.601 643.713 984.948 640.673 983.774 637.206C982.654 633.686 982.094 629.926 982.094 625.926V625.766C982.094 621.766 982.681 618.006 983.854 614.486C985.028 610.966 986.681 607.899 988.814 605.286C990.948 602.673 993.508 600.619 996.494 599.126C999.534 597.579 1002.89 596.806 1006.57 596.806C1010.25 596.806 1013.59 597.553 1016.57 599.046C1019.56 600.539 1022.09 602.593 1024.17 605.206C1026.31 607.819 1027.96 610.886 1029.13 614.406C1030.31 617.873 1030.89 621.606 1030.89 625.606V625.766C1030.89 629.766 1030.31 633.526 1029.13 637.046C1027.96 640.566 1026.31 643.633 1024.17 646.246C1022.04 648.859 1019.45 650.939 1016.41 652.486C1013.43 653.979 1010.09 654.726 1006.41 654.726ZM1042.55 646.006L1061.83 629.606C1063.75 628.006 1065.37 626.566 1066.71 625.286C1068.04 623.953 1069.11 622.699 1069.91 621.526C1070.76 620.353 1071.37 619.206 1071.75 618.086C1072.12 616.966 1072.31 615.766 1072.31 614.486C1072.31 611.713 1071.43 609.579 1069.67 608.086C1067.96 606.539 1065.83 605.766 1063.27 605.766C1060.71 605.766 1058.44 606.459 1056.47 607.846C1054.55 609.233 1052.49 611.339 1050.31 614.166L1043.35 608.726C1044.68 606.859 1046.04 605.206 1047.43 603.766C1048.81 602.273 1050.31 601.046 1051.91 600.086C1053.56 599.073 1055.35 598.299 1057.27 597.766C1059.24 597.233 1061.48 596.966 1063.99 596.966C1066.71 596.966 1069.19 597.366 1071.43 598.166C1073.72 598.966 1075.67 600.113 1077.27 601.606C1078.92 603.046 1080.2 604.806 1081.11 606.886C1082.01 608.913 1082.47 611.179 1082.47 613.686V613.846C1082.47 616.033 1082.17 618.033 1081.59 619.846C1081 621.606 1080.09 623.313 1078.87 624.966C1077.69 626.619 1076.17 628.299 1074.31 630.006C1072.49 631.659 1070.36 633.499 1067.91 635.526L1056.39 645.126H1083.03V653.766H1042.55V646.006ZM1115.21 654.726C1110.89 654.726 1107.05 653.953 1103.69 652.406C1100.33 650.806 1097.31 648.726 1094.65 646.166L1100.73 639.046C1102.97 641.126 1105.26 642.779 1107.61 644.006C1110.01 645.179 1112.51 645.766 1115.13 645.766C1118.49 645.766 1121.18 644.886 1123.21 643.126C1125.23 641.366 1126.25 639.019 1126.25 636.086V635.926C1126.25 633.046 1125.15 630.779 1122.97 629.126C1120.83 627.473 1118.06 626.646 1114.65 626.646C1112.62 626.646 1110.75 626.886 1109.05 627.366C1107.34 627.846 1105.77 628.433 1104.33 629.126L1098.41 625.206L1100.01 597.766H1133.45V606.486H1108.49L1107.61 619.606C1108.94 619.126 1110.27 618.753 1111.61 618.486C1112.99 618.166 1114.62 618.006 1116.49 618.006C1119.21 618.006 1121.74 618.379 1124.09 619.126C1126.49 619.819 1128.54 620.913 1130.25 622.406C1132.01 623.846 1133.39 625.686 1134.41 627.926C1135.42 630.113 1135.93 632.673 1135.93 635.606V635.766C1135.93 638.646 1135.42 641.259 1134.41 643.606C1133.45 645.899 1132.06 647.873 1130.25 649.526C1128.43 651.179 1126.25 652.459 1123.69 653.366C1121.13 654.273 1118.3 654.726 1115.21 654.726Z" fill="white"/>
<defs>
<linearGradient id="paint0_linear_9_35612" x1="600.268" y1="144.766" x2="851.768" y2="218.266" gradientUnits="userSpaceOnUse">
<stop stop-color="#CCE1F0"/>
<stop offset="1" stop-color="#21669D"/>
</linearGradient>
</defs>
</svg>
