<svg width="1557" height="660" viewBox="0 0 1557 660" fill="none" xmlns="http://www.w3.org/2000/svg">
<path d="M1413.77 173.5C1421.77 139.5 1456.92 107.92 1461.77 119C1465.27 127 1457.77 143.5 1461.77 143.5C1461.77 143.5 1467.83 139.659 1470.77 138.5C1489.77 131 1507.27 129.957 1521.77 137C1539.27 145.5 1552.27 161 1555.27 181.5C1557.5 196.763 1557.27 209.5 1556.27 226C1555.27 242.5 1548.27 331 1554.27 351.5C1555.38 355.295 1549.34 357.693 1545.77 356C1536.27 351.5 1526.27 335 1520.77 316C1517.72 305.473 1513.88 280.845 1511.27 257C1508.66 233.155 1511.21 195.519 1506.27 188.5C1499.32 178.623 1495.73 177.186 1483.77 175.5C1472.45 173.905 1455.73 179.913 1454.77 185.5C1449.27 217.5 1449.49 245.5 1443.27 279.5C1437.74 309.694 1427.77 358.796 1416.27 353.5C1407.58 349.5 1404.83 316.158 1403.27 292C1400.27 245.5 1403.13 218.724 1413.77 173.5Z" fill="white"/>
<path d="M1285.27 117.5C1291.51 113.755 1305.27 128.376 1308.27 128C1312.84 127.429 1317.27 122.546 1323.27 122C1330.27 121.364 1344.16 121.686 1347.77 129.5C1350.47 135.35 1346.77 139.501 1343.77 143.5C1339.08 149.749 1332.21 154.543 1333.27 156C1337.27 161.503 1379.27 219.502 1379.27 262C1379.27 299 1372.77 323.88 1346.77 341C1332.27 350.546 1319.56 355.026 1302.27 353.5C1268.27 350.501 1238.06 321.507 1233.77 283.5C1230.27 252.501 1232.77 233 1242.27 201.5C1254.74 160.142 1286.87 141.427 1286.27 139C1285.27 135.001 1283.27 133 1282.77 128C1282.42 124.518 1282.77 119.001 1285.27 117.5ZM1316.27 172.5C1312.77 172.5 1269.27 234.5 1273.27 275.5C1275.71 300.5 1286.27 322.5 1306.77 322.5C1330.79 322.5 1344.82 297.5 1349.27 274C1352.96 254.501 1347.27 228.5 1340.27 212.5C1332.73 195.281 1319.27 172.501 1316.27 172.5Z" fill="white"/>
<path d="M1153.27 287C1157.27 241 1170.27 200 1171.77 155.5C1171.99 148.961 1171.17 141.494 1169.27 134C1167.74 128 1163.21 123.557 1163.77 121.5C1165.27 116 1176.77 116.32 1184.77 118.5C1195.77 121.5 1203.34 128.735 1209.27 140C1219.27 159 1218.79 189.5 1216.77 199.5C1206.77 249 1201.27 261.099 1189.27 302C1186.26 312.228 1181.12 328 1180.27 334.5C1179.28 342 1178.5 353.003 1174.27 354C1160.77 357.176 1150.9 314.203 1153.27 287Z" fill="white"/>
<path d="M1177.27 8.00003C1176.41 5 1178.27 2.10507 1181.77 1.00005C1191.27 -1.99975 1197.54 4.29531 1203.77 11.5001C1213.27 22.5 1219.22 28.9708 1224.77 42.5001C1231.14 58.035 1234.77 77.0001 1231.27 85.0001C1225.59 97.9642 1213.1 105.002 1199.27 102C1186.56 99.2416 1178.22 92.2674 1177.27 77.0001C1176.77 69 1180.77 47.537 1180.77 34C1180.77 23.5 1179.98 17.5 1177.27 8.00003Z" fill="white"/>
<path d="M1039.26 127C1062.26 118.5 1094.26 113.914 1107.76 119.5C1116.58 123.149 1120.95 130.981 1120.26 140.5C1119.57 150.051 1114.17 157.707 1104.76 159.5C1094.27 161.5 1083.27 160.5 1068.26 162.5C1051.51 164.732 1032.9 172.867 1032.26 186.5C1031.77 197 1043.4 204.728 1055.27 210C1068.77 216 1106.57 210 1124.76 223C1138.68 232.945 1140.67 252.053 1131.76 267C1116.27 293 1086.77 304.5 1055.26 323.5C1037.95 333.94 1026.77 338.5 1008.27 349.5C996.11 356.729 987.505 363.868 976.766 367C972.337 368.292 970.974 361.988 971.266 358.5C971.767 352.5 984.536 334.811 996.26 322.5C1016.26 301.5 1041.35 285.986 1058.26 274.5C1084.76 256.5 1099.77 249.5 1100.77 242.5C1101.55 237 1058.26 238.5 1032.26 226.5C1012.1 217.193 999.954 200.636 1001.76 178.5C1003.76 154 1015.6 135.745 1039.26 127Z" fill="white"/>
<path d="M950.266 135.5C950.587 131.011 948.266 117.611 953.766 117C959.266 116.389 974.766 124 979.266 143C983.766 162 983.016 186.5 979.267 204.5C974.267 228.5 967.55 247.026 957.767 273.5C949.267 296.5 932.607 338.142 931.267 343.5C929.267 351.5 923.397 356 920.767 353.5C912.767 345.894 911.496 335.744 910.267 321C907.266 285 912.629 259.976 924.268 224.5C934.766 192.5 948.766 156.5 950.266 135.5Z" fill="white"/>
<path d="M404.267 120.5C430.266 115.312 450.267 113.5 473.767 121.5C491.283 127.463 502.041 136.576 505.267 154C507.766 167.5 501.055 185.8 487.267 198.5C468.266 216 456.766 219 435.267 226.5C427.262 229.292 418.266 229.5 413.767 230.5C412.555 230.769 412.938 232.749 413.767 233.5C461.767 277 483.47 337.32 503.767 361C506.766 364.5 496.767 368.268 492.267 366.5C481.863 362.413 476.292 361.039 468.267 353.5C435.267 322.5 420.266 291 391.767 260C390.95 259.112 388.806 259.087 388.767 260.5C387.767 296 377.766 340.5 358.767 353C356.678 354.374 353.698 351.54 353.768 348.5C354.768 304.5 355.674 278 359.767 233C360.203 228.203 347.966 223.5 345.767 218C344.634 215.169 344.768 214.5 348.767 214.5H361.767C362.261 214.5 362.767 205 364.767 191.5C366.766 178.002 370.163 167.397 369.267 167.5C360.767 168.5 358.498 167.5 353.267 163.5C344.766 157 348.593 143.926 353.267 140C365.766 129.5 383.424 124.659 404.267 120.5ZM469.268 151C461.768 149.5 425.27 153.503 398.269 162C396.268 162.63 392.768 207.034 393.768 207C415.268 206.001 427.425 205.152 446.268 196C463.767 187.5 477.767 169.5 478.268 162.5C478.768 155.5 476.768 152.5 469.268 151Z" fill="white"/>
<path d="M233.768 126.5C242.768 118.592 250.268 115 263.268 115.5C272.085 115.839 277.31 118.987 283.768 125C298.268 138.5 301.899 149.602 309.268 167.5C322.032 198.5 322.116 229 319.768 252.5C317.101 279.189 312.768 295.001 302.268 318.5C295.018 334.727 284.768 353.499 274.768 356C271.714 356.763 270.768 352.649 270.768 349.5C270.768 341.501 274.268 327 275.768 315C277.768 299.002 279.267 273.109 278.268 273C263.268 271.501 244.268 267.501 232.268 266C230.779 265.814 241.525 324.523 234.768 339C231.267 346.5 219.768 353.499 213.268 352.5C203.268 350.961 195.268 342.5 192.768 327C189.005 303.669 187.617 279.547 189.767 251.5C192.076 221.374 195.426 199.5 204.268 175.5C211.839 154.95 217.268 141 233.768 126.5ZM249.769 168.5C239.701 169.13 233.81 181.001 232.269 187.5C227.765 206.5 227.269 238.961 228.769 239C247.768 239.5 262.769 246 277.269 247C278.268 247.069 275.769 219.5 270.769 200.5C266.909 185.835 257.77 168.001 249.769 168.5Z" fill="white"/>
<path d="M56.2676 68.4998C73.7675 61.9998 93.7674 57.9998 107.768 60.9998C121.768 63.9998 140.267 75.4999 149.267 89.9998C158.266 104.5 159.767 119.5 159.767 133C159.767 138.662 159.767 144.5 157.768 149C156.259 152.396 152.984 158.476 147.267 162.5C133.767 172 117.768 176 112.268 180C111.162 180.804 111.544 182.888 112.767 183.5C127.766 191 139.263 201.473 149.267 218.5C155.436 229 159.659 236.918 160.268 250C161.267 271.5 157.767 288.5 149.267 306.5C135.991 334.614 124.267 347.179 97.2666 364.5C78.5964 376.477 60.2675 377.5 41.7676 374C31.832 372.12 20.2673 363 11.2676 351.5C7.3119 346.445 5.76668 343 4.26758 337.5C2.76851 332 2.26782 327.5 1.26758 320.5C0.267351 313.5 -0.396701 299.767 0.267578 286.5C1.26899 266.5 2.55059 251.525 4.26758 235.5C6.77323 212.114 8.63044 188.152 14.2676 157C16.0835 146.965 21.7674 134.432 26.7676 135C33.2671 135.737 34.3511 147.835 35.2676 157C36.7676 172 35.4927 193.774 36.7676 192.5C41.2681 188 47.7563 184.033 52.7676 181C71.7676 169.5 82.8152 165.705 105.768 157C120.268 151.5 127.768 148 141.268 141.5C143.268 140.537 144.574 137.419 143.768 135C141.768 129 138.767 125 132.768 120C121.281 110.428 109.266 107 98.2666 106C87.2668 105 65.1892 106.04 46.2676 115.5C41.2673 118 36.7666 121 29.7666 121C23.8154 121 21.2676 115.5 21.2676 110C21.2677 104.499 26.7678 80.4996 56.2676 68.4998ZM106.268 227C86.8852 217.602 65.267 217.998 35.7676 222.5C34.2675 222.729 32.1569 249.203 30.7676 262.5C28.2435 286.658 24.1969 317.595 26.2676 319C43.2673 330.5 49.9604 332.614 66.2676 334C92.1705 336.201 111.767 330.5 126.767 312.5C139.54 297.172 145.452 279 140.267 262.5C134.637 244.586 122.767 235 106.268 227Z" fill="white"/>
<path d="M718.266 21C716.373 19.8108 714.176 20.3375 712.266 21.4999C643.266 63.5 593.766 106 544.766 146.5C542.508 148.366 543.002 151.673 543.767 154.5C566.766 239.5 588.267 291.5 610.767 348.5C611.943 351.479 614.065 353.422 617.267 353.5C699.267 355.5 741.267 355.5 822.767 351C826.902 350.772 829.342 347.89 830.767 344C856.766 273 868.267 228.5 889.267 150.5C889.926 148.049 890.76 143.572 888.767 142C820.267 88.0002 782.766 61.5001 718.266 21Z" fill="white"/>
<path d="M786.268 132.5C763.267 103 738.269 74.5 735.768 74.5C732.267 74.5 707.767 98 688.267 106.5C669.267 114.782 658.602 116.406 640.269 125C624.27 132.5 600.991 144 600.768 146C600.545 148 614.766 186.5 615.767 208.5C616.703 229.076 617.251 245.804 618.769 263C620.269 280 622.47 295.5 624.768 297C626.269 297.98 643.691 296.165 655.768 297C677.269 298.487 693.021 300.244 712.769 307C722.269 310.25 737.769 312.86 750.769 316.5C760.491 319.222 776.943 322.795 778.267 322C780.767 320.5 784.542 292.615 792.267 275.5C800.768 256.668 806.364 247.867 818.767 230.5C828.766 216.5 842.769 189.5 844.268 183C844.845 180.5 809.269 162 786.268 132.5Z" fill="url(#paint0_linear_1027_3885)"/>
<path d="M275.896 529.25C269.23 529.25 262.688 528.125 256.271 525.875C249.855 523.542 244.021 520 238.771 515.25L250.146 501.625C254.146 504.875 258.23 507.458 262.396 509.375C266.646 511.292 271.271 512.25 276.271 512.25C280.271 512.25 283.355 511.542 285.521 510.125C287.771 508.625 288.896 506.583 288.896 504V503.75C288.896 502.5 288.646 501.417 288.146 500.5C287.73 499.5 286.855 498.583 285.521 497.75C284.271 496.917 282.48 496.083 280.146 495.25C277.896 494.417 274.938 493.542 271.271 492.625C266.855 491.542 262.855 490.333 259.271 489C255.688 487.667 252.646 486.042 250.146 484.125C247.646 482.125 245.688 479.667 244.271 476.75C242.938 473.833 242.271 470.208 242.271 465.875V465.625C242.271 461.625 243.021 458.042 244.521 454.875C246.021 451.625 248.105 448.833 250.771 446.5C253.521 444.167 256.771 442.375 260.521 441.125C264.271 439.875 268.396 439.25 272.896 439.25C279.313 439.25 285.188 440.208 290.521 442.125C295.938 444.042 300.896 446.792 305.396 450.375L295.396 464.875C291.48 462.208 287.646 460.125 283.896 458.625C280.146 457.042 276.396 456.25 272.646 456.25C268.896 456.25 266.063 457 264.146 458.5C262.313 459.917 261.396 461.708 261.396 463.875V464.125C261.396 465.542 261.646 466.792 262.146 467.875C262.73 468.875 263.73 469.792 265.146 470.625C266.563 471.458 268.48 472.25 270.896 473C273.396 473.75 276.521 474.625 280.271 475.625C284.688 476.792 288.605 478.125 292.021 479.625C295.521 481.042 298.438 482.792 300.771 484.875C303.188 486.875 304.98 489.25 306.146 492C307.396 494.75 308.021 498.042 308.021 501.875V502.125C308.021 506.458 307.23 510.333 305.646 513.75C304.063 517.083 301.855 519.917 299.021 522.25C296.188 524.5 292.813 526.25 288.896 527.5C284.98 528.667 280.646 529.25 275.896 529.25ZM372.478 511.75C376.311 511.75 379.853 511.042 383.103 509.625C386.353 508.208 389.103 506.25 391.353 503.75C393.686 501.25 395.478 498.375 396.728 495.125C398.061 491.792 398.728 488.25 398.728 484.5V484.25C398.728 480.5 398.061 476.958 396.728 473.625C395.478 470.292 393.644 467.375 391.228 464.875C388.894 462.375 386.103 460.417 382.853 459C379.603 457.5 376.061 456.75 372.228 456.75C368.311 456.75 364.728 457.458 361.478 458.875C358.311 460.292 355.561 462.25 353.228 464.75C350.978 467.25 349.186 470.167 347.853 473.5C346.603 476.75 345.978 480.25 345.978 484V484.25C345.978 488 346.603 491.542 347.853 494.875C349.186 498.208 351.019 501.125 353.353 503.625C355.769 506.125 358.561 508.125 361.728 509.625C364.978 511.042 368.561 511.75 372.478 511.75ZM372.228 529.5C365.478 529.5 359.269 528.333 353.603 526C347.936 523.583 343.019 520.375 338.853 516.375C334.769 512.292 331.561 507.542 329.228 502.125C326.978 496.625 325.853 490.75 325.853 484.5V484.25C325.853 478 327.019 472.167 329.353 466.75C331.686 461.25 334.894 456.458 338.978 452.375C343.144 448.208 348.061 444.958 353.728 442.625C359.478 440.208 365.728 439 372.478 439C379.228 439 385.436 440.208 391.103 442.625C396.769 444.958 401.644 448.167 405.728 452.25C409.894 456.25 413.103 461 415.353 466.5C417.686 471.917 418.853 477.75 418.853 484V484.25C418.853 490.5 417.686 496.375 415.353 501.875C413.019 507.292 409.769 512.083 405.603 516.25C401.519 520.333 396.603 523.583 390.853 526C385.186 528.333 378.978 529.5 372.228 529.5ZM440.929 440.5H458.679L499.679 494.375V440.5H518.679V528H502.304L459.929 472.375V528H440.929V440.5ZM586.809 529.5C579.975 529.5 573.725 528.375 568.059 526.125C562.475 523.875 557.642 520.75 553.559 516.75C549.559 512.75 546.434 508 544.184 502.5C541.934 497 540.809 491 540.809 484.5V484.25C540.809 478 541.934 472.167 544.184 466.75C546.517 461.25 549.725 456.458 553.809 452.375C557.892 448.208 562.725 444.958 568.309 442.625C573.892 440.208 580.017 439 586.684 439C590.6 439 594.142 439.292 597.309 439.875C600.559 440.375 603.559 441.125 606.309 442.125C609.059 443.125 611.642 444.375 614.059 445.875C616.475 447.375 618.809 449.083 621.059 451L608.934 465.625C607.267 464.208 605.6 462.958 603.934 461.875C602.267 460.792 600.517 459.875 598.684 459.125C596.934 458.375 595.017 457.792 592.934 457.375C590.85 456.958 588.559 456.75 586.059 456.75C582.559 456.75 579.267 457.5 576.184 459C573.184 460.417 570.517 462.375 568.184 464.875C565.934 467.292 564.142 470.167 562.809 473.5C561.559 476.75 560.934 480.25 560.934 484V484.25C560.934 488.25 561.559 491.958 562.809 495.375C564.142 498.708 565.975 501.625 568.309 504.125C570.725 506.625 573.517 508.583 576.684 510C579.934 511.333 583.517 512 587.434 512C594.6 512 600.642 510.25 605.559 506.75V494.25H586.184V477.625H624.184V515.625C619.684 519.458 614.309 522.75 608.059 525.5C601.892 528.167 594.809 529.5 586.809 529.5ZM731.182 529.5C724.765 529.5 718.807 528.333 713.307 526C707.807 523.667 703.057 520.5 699.057 516.5C695.057 512.417 691.932 507.625 689.682 502.125C687.432 496.625 686.307 490.75 686.307 484.5V484.25C686.307 478 687.432 472.167 689.682 466.75C691.932 461.25 695.057 456.458 699.057 452.375C703.057 448.208 707.848 444.958 713.432 442.625C719.015 440.208 725.182 439 731.932 439C736.015 439 739.723 439.333 743.057 440C746.473 440.667 749.557 441.583 752.307 442.75C755.057 443.917 757.598 445.333 759.932 447C762.265 448.667 764.432 450.5 766.432 452.5L754.182 466.625C750.765 463.542 747.265 461.125 743.682 459.375C740.182 457.625 736.223 456.75 731.807 456.75C728.14 456.75 724.723 457.458 721.557 458.875C718.473 460.292 715.807 462.25 713.557 464.75C711.307 467.25 709.557 470.167 708.307 473.5C707.057 476.75 706.432 480.25 706.432 484V484.25C706.432 488 707.057 491.542 708.307 494.875C709.557 498.208 711.265 501.125 713.432 503.625C715.682 506.125 718.348 508.125 721.432 509.625C724.598 511.042 728.057 511.75 731.807 511.75C736.807 511.75 741.015 510.833 744.432 509C747.932 507.167 751.39 504.667 754.807 501.5L767.057 513.875C764.807 516.292 762.473 518.458 760.057 520.375C757.64 522.292 754.973 523.958 752.057 525.375C749.223 526.708 746.098 527.708 742.682 528.375C739.265 529.125 735.432 529.5 731.182 529.5ZM830.217 511.75C834.05 511.75 837.592 511.042 840.842 509.625C844.092 508.208 846.842 506.25 849.092 503.75C851.425 501.25 853.217 498.375 854.467 495.125C855.8 491.792 856.467 488.25 856.467 484.5V484.25C856.467 480.5 855.8 476.958 854.467 473.625C853.217 470.292 851.383 467.375 848.967 464.875C846.633 462.375 843.842 460.417 840.592 459C837.342 457.5 833.8 456.75 829.967 456.75C826.05 456.75 822.467 457.458 819.217 458.875C816.05 460.292 813.3 462.25 810.967 464.75C808.717 467.25 806.925 470.167 805.592 473.5C804.342 476.75 803.717 480.25 803.717 484V484.25C803.717 488 804.342 491.542 805.592 494.875C806.925 498.208 808.758 501.125 811.092 503.625C813.508 506.125 816.3 508.125 819.467 509.625C822.717 511.042 826.3 511.75 830.217 511.75ZM829.967 529.5C823.217 529.5 817.008 528.333 811.342 526C805.675 523.583 800.758 520.375 796.592 516.375C792.508 512.292 789.3 507.542 786.967 502.125C784.717 496.625 783.592 490.75 783.592 484.5V484.25C783.592 478 784.758 472.167 787.092 466.75C789.425 461.25 792.633 456.458 796.717 452.375C800.883 448.208 805.8 444.958 811.467 442.625C817.217 440.208 823.467 439 830.217 439C836.967 439 843.175 440.208 848.842 442.625C854.508 444.958 859.383 448.167 863.467 452.25C867.633 456.25 870.842 461 873.092 466.5C875.425 471.917 876.592 477.75 876.592 484V484.25C876.592 490.5 875.425 496.375 873.092 501.875C870.758 507.292 867.508 512.083 863.342 516.25C859.258 520.333 854.342 523.583 848.592 526C842.925 528.333 836.717 529.5 829.967 529.5ZM898.668 440.5H916.418L957.418 494.375V440.5H976.418V528H960.043L917.668 472.375V528H898.668V440.5ZM1022.8 458.25H996.173V440.5H1068.67V458.25H1042.05V528H1022.8V458.25ZM1088.48 440.5H1154.48V457.625H1107.6V475.375H1148.85V492.5H1107.6V510.875H1155.1V528H1088.48V440.5ZM1208.34 529.25C1201.68 529.25 1195.13 528.125 1188.72 525.875C1182.3 523.542 1176.47 520 1171.22 515.25L1182.59 501.625C1186.59 504.875 1190.68 507.458 1194.84 509.375C1199.09 511.292 1203.72 512.25 1208.72 512.25C1212.72 512.25 1215.8 511.542 1217.97 510.125C1220.22 508.625 1221.34 506.583 1221.34 504V503.75C1221.34 502.5 1221.09 501.417 1220.59 500.5C1220.18 499.5 1219.3 498.583 1217.97 497.75C1216.72 496.917 1214.93 496.083 1212.59 495.25C1210.34 494.417 1207.38 493.542 1203.72 492.625C1199.3 491.542 1195.3 490.333 1191.72 489C1188.13 487.667 1185.09 486.042 1182.59 484.125C1180.09 482.125 1178.13 479.667 1176.72 476.75C1175.38 473.833 1174.72 470.208 1174.72 465.875V465.625C1174.72 461.625 1175.47 458.042 1176.97 454.875C1178.47 451.625 1180.55 448.833 1183.22 446.5C1185.97 444.167 1189.22 442.375 1192.97 441.125C1196.72 439.875 1200.84 439.25 1205.34 439.25C1211.76 439.25 1217.63 440.208 1222.97 442.125C1228.38 444.042 1233.34 446.792 1237.84 450.375L1227.84 464.875C1223.93 462.208 1220.09 460.125 1216.34 458.625C1212.59 457.042 1208.84 456.25 1205.09 456.25C1201.34 456.25 1198.51 457 1196.59 458.5C1194.76 459.917 1193.84 461.708 1193.84 463.875V464.125C1193.84 465.542 1194.09 466.792 1194.59 467.875C1195.18 468.875 1196.18 469.792 1197.59 470.625C1199.01 471.458 1200.93 472.25 1203.34 473C1205.84 473.75 1208.97 474.625 1212.72 475.625C1217.13 476.792 1221.05 478.125 1224.47 479.625C1227.97 481.042 1230.88 482.792 1233.22 484.875C1235.63 486.875 1237.43 489.25 1238.59 492C1239.84 494.75 1240.47 498.042 1240.47 501.875V502.125C1240.47 506.458 1239.68 510.333 1238.09 513.75C1236.51 517.083 1234.3 519.917 1231.47 522.25C1228.63 524.5 1225.26 526.25 1221.34 527.5C1217.43 528.667 1213.09 529.25 1208.34 529.25ZM1282.55 458.25H1255.92V440.5H1328.42V458.25H1301.8V528H1282.55V458.25Z" fill="white"/>
<path d="M411.355 644.96C407.249 644.96 403.435 644.213 399.915 642.72C396.395 641.227 393.355 639.2 390.795 636.64C388.235 634.027 386.235 630.96 384.795 627.44C383.355 623.92 382.635 620.16 382.635 616.16V616C382.635 612 383.355 608.267 384.795 604.8C386.235 601.28 388.235 598.213 390.795 595.6C393.355 592.933 396.422 590.853 399.995 589.36C403.569 587.813 407.515 587.04 411.835 587.04C414.449 587.04 416.822 587.253 418.955 587.68C421.142 588.107 423.115 588.693 424.875 589.44C426.635 590.187 428.262 591.093 429.755 592.16C431.249 593.227 432.635 594.4 433.915 595.68L426.075 604.72C423.889 602.747 421.649 601.2 419.355 600.08C417.115 598.96 414.582 598.4 411.755 598.4C409.409 598.4 407.222 598.853 405.195 599.76C403.222 600.667 401.515 601.92 400.075 603.52C398.635 605.12 397.515 606.987 396.715 609.12C395.915 611.2 395.515 613.44 395.515 615.84V616C395.515 618.4 395.915 620.667 396.715 622.8C397.515 624.933 398.609 626.8 399.995 628.4C401.435 630 403.142 631.28 405.115 632.24C407.142 633.147 409.355 633.6 411.755 633.6C414.955 633.6 417.649 633.013 419.835 631.84C422.075 630.667 424.289 629.067 426.475 627.04L434.315 634.96C432.875 636.507 431.382 637.893 429.835 639.12C428.289 640.347 426.582 641.413 424.715 642.32C422.902 643.173 420.902 643.813 418.715 644.24C416.529 644.72 414.075 644.96 411.355 644.96ZM447.378 588H459.698V610.16H482.418V588H494.738V644H482.418V621.52H459.698V644H447.378V588ZM538.719 633.6C541.172 633.6 543.439 633.147 545.519 632.24C547.599 631.333 549.359 630.08 550.799 628.48C552.292 626.88 553.439 625.04 554.239 622.96C555.092 620.827 555.519 618.56 555.519 616.16V616C555.519 613.6 555.092 611.333 554.239 609.2C553.439 607.067 552.266 605.2 550.719 603.6C549.226 602 547.439 600.747 545.359 599.84C543.279 598.88 541.012 598.4 538.559 598.4C536.052 598.4 533.759 598.853 531.679 599.76C529.652 600.667 527.892 601.92 526.399 603.52C524.959 605.12 523.812 606.987 522.959 609.12C522.159 611.2 521.759 613.44 521.759 615.84V616C521.759 618.4 522.159 620.667 522.959 622.8C523.812 624.933 524.986 626.8 526.479 628.4C528.026 630 529.812 631.28 531.839 632.24C533.919 633.147 536.212 633.6 538.719 633.6ZM538.559 644.96C534.239 644.96 530.266 644.213 526.639 642.72C523.012 641.173 519.866 639.12 517.199 636.56C514.586 633.947 512.532 630.907 511.039 627.44C509.599 623.92 508.879 620.16 508.879 616.16V616C508.879 612 509.626 608.267 511.119 604.8C512.612 601.28 514.666 598.213 517.279 595.6C519.946 592.933 523.092 590.853 526.719 589.36C530.399 587.813 534.399 587.04 538.719 587.04C543.039 587.04 547.012 587.813 550.639 589.36C554.266 590.853 557.386 592.907 559.999 595.52C562.666 598.08 564.719 601.12 566.159 604.64C567.652 608.107 568.399 611.84 568.399 615.84V616C568.399 620 567.652 623.76 566.159 627.28C564.666 630.747 562.586 633.813 559.919 636.48C557.306 639.093 554.159 641.173 550.479 642.72C546.852 644.213 542.879 644.96 538.559 644.96ZM582.528 588H593.888L620.128 622.48V588H632.288V644H621.808L594.688 608.4V644H582.528V588ZM675.891 644.96C671.518 644.96 667.518 644.24 663.891 642.8C660.318 641.36 657.224 639.36 654.611 636.8C652.051 634.24 650.051 631.2 648.611 627.68C647.171 624.16 646.451 620.32 646.451 616.16V616C646.451 612 647.171 608.267 648.611 604.8C650.104 601.28 652.158 598.213 654.771 595.6C657.384 592.933 660.478 590.853 664.051 589.36C667.624 587.813 671.544 587.04 675.811 587.04C678.318 587.04 680.584 587.227 682.611 587.6C684.691 587.92 686.611 588.4 688.371 589.04C690.131 589.68 691.784 590.48 693.331 591.44C694.878 592.4 696.371 593.493 697.811 594.72L690.051 604.08C688.984 603.173 687.918 602.373 686.851 601.68C685.784 600.987 684.664 600.4 683.491 599.92C682.371 599.44 681.144 599.067 679.811 598.8C678.478 598.533 677.011 598.4 675.411 598.4C673.171 598.4 671.064 598.88 669.091 599.84C667.171 600.747 665.464 602 663.971 603.6C662.531 605.147 661.384 606.987 660.531 609.12C659.731 611.2 659.331 613.44 659.331 615.84V616C659.331 618.56 659.731 620.933 660.531 623.12C661.384 625.253 662.558 627.12 664.051 628.72C665.598 630.32 667.384 631.573 669.411 632.48C671.491 633.333 673.784 633.76 676.291 633.76C680.878 633.76 684.744 632.64 687.891 630.4V622.4H675.491V611.76H699.811V636.08C696.931 638.533 693.491 640.64 689.491 642.4C685.544 644.107 681.011 644.96 675.891 644.96ZM742.225 633.6C744.839 633.6 747.292 633.093 749.585 632.08L740.465 624.32L748.305 615.52L757.505 623.84C758.519 621.6 759.025 619.04 759.025 616.16V616C759.025 613.6 758.599 611.333 757.745 609.2C756.945 607.067 755.772 605.2 754.225 603.6C752.732 602 750.945 600.747 748.865 599.84C746.785 598.88 744.519 598.4 742.065 598.4C739.559 598.4 737.265 598.853 735.185 599.76C733.159 600.667 731.399 601.92 729.905 603.52C728.465 605.12 727.319 606.987 726.465 609.12C725.665 611.2 725.265 613.44 725.265 615.84V616C725.265 618.4 725.665 620.667 726.465 622.8C727.319 624.933 728.492 626.8 729.985 628.4C731.532 630 733.319 631.28 735.345 632.24C737.425 633.147 739.719 633.6 742.225 633.6ZM758.705 640.16C756.305 641.707 753.719 642.907 750.945 643.76C748.172 644.56 745.212 644.96 742.065 644.96C737.745 644.96 733.772 644.213 730.145 642.72C726.519 641.173 723.372 639.12 720.705 636.56C718.092 633.947 716.039 630.907 714.545 627.44C713.105 623.92 712.385 620.16 712.385 616.16V616C712.385 612 713.132 608.267 714.625 604.8C716.119 601.28 718.172 598.213 720.785 595.6C723.452 592.933 726.599 590.853 730.225 589.36C733.905 587.813 737.905 587.04 742.225 587.04C746.545 587.04 750.519 587.813 754.145 589.36C757.772 590.853 760.892 592.907 763.505 595.52C766.172 598.08 768.225 601.12 769.665 604.64C771.159 608.107 771.905 611.84 771.905 615.84V616C771.905 618.933 771.479 621.76 770.625 624.48C769.772 627.2 768.545 629.733 766.945 632.08L772.705 636.96L764.865 645.68L758.705 640.16ZM786.594 588H798.914V644H786.594V588ZM816.109 588H827.469L853.709 622.48V588H865.869V644H855.389L828.269 608.4V644H816.109V588ZM909.472 644.96C905.099 644.96 901.099 644.24 897.472 642.8C893.899 641.36 890.806 639.36 888.192 636.8C885.632 634.24 883.632 631.2 882.192 627.68C880.752 624.16 880.032 620.32 880.032 616.16V616C880.032 612 880.752 608.267 882.192 604.8C883.686 601.28 885.739 598.213 888.352 595.6C890.966 592.933 894.059 590.853 897.632 589.36C901.206 587.813 905.126 587.04 909.392 587.04C911.899 587.04 914.166 587.227 916.192 587.6C918.272 587.92 920.192 588.4 921.952 589.04C923.712 589.68 925.366 590.48 926.912 591.44C928.459 592.4 929.952 593.493 931.392 594.72L923.632 604.08C922.566 603.173 921.499 602.373 920.432 601.68C919.366 600.987 918.246 600.4 917.072 599.92C915.952 599.44 914.726 599.067 913.392 598.8C912.059 598.533 910.592 598.4 908.992 598.4C906.752 598.4 904.646 598.88 902.672 599.84C900.752 600.747 899.046 602 897.552 603.6C896.112 605.147 894.966 606.987 894.112 609.12C893.312 611.2 892.912 613.44 892.912 615.84V616C892.912 618.56 893.312 620.933 894.112 623.12C894.966 625.253 896.139 627.12 897.632 628.72C899.179 630.32 900.966 631.573 902.992 632.48C905.072 633.333 907.366 633.76 909.872 633.76C914.459 633.76 918.326 632.64 921.472 630.4V622.4H909.072V611.76H933.392V636.08C930.512 638.533 927.072 640.64 923.072 642.4C919.126 644.107 914.592 644.96 909.472 644.96ZM972.831 634.24L991.471 618.96C993.231 617.52 994.724 616.24 995.951 615.12C997.178 613.947 998.164 612.853 998.911 611.84C999.711 610.773 1000.27 609.76 1000.59 608.8C1000.96 607.787 1001.15 606.693 1001.15 605.52C1001.15 603.12 1000.46 601.307 999.071 600.08C997.684 598.853 995.871 598.24 993.631 598.24C991.444 598.24 989.498 598.853 987.791 600.08C986.138 601.307 984.271 603.2 982.191 605.76L973.551 598.8C974.938 596.933 976.324 595.28 977.711 593.84C979.151 592.4 980.671 591.2 982.271 590.24C983.924 589.227 985.738 588.48 987.711 588C989.684 587.467 991.924 587.2 994.431 587.2C997.311 587.2 999.924 587.627 1002.27 588.48C1004.67 589.28 1006.7 590.427 1008.35 591.92C1010.06 593.413 1011.36 595.227 1012.27 597.36C1013.23 599.493 1013.71 601.867 1013.71 604.48V604.64C1013.71 606.987 1013.39 609.093 1012.75 610.96C1012.16 612.773 1011.26 614.507 1010.03 616.16C1008.86 617.76 1007.34 619.387 1005.47 621.04C1003.6 622.64 1001.44 624.4 998.991 626.32L989.871 633.36H1014.27V644H972.831V634.24ZM1051.23 633.84C1053.1 633.84 1054.78 633.413 1056.27 632.56C1057.77 631.653 1059.05 630.427 1060.11 628.88C1061.18 627.28 1061.98 625.413 1062.51 623.28C1063.1 621.093 1063.39 618.72 1063.39 616.16V616C1063.39 613.44 1063.1 611.093 1062.51 608.96C1061.93 606.773 1061.07 604.88 1059.95 603.28C1058.89 601.68 1057.58 600.427 1056.03 599.52C1054.54 598.613 1052.89 598.16 1051.07 598.16C1049.21 598.16 1047.53 598.613 1046.03 599.52C1044.54 600.373 1043.26 601.6 1042.19 603.2C1041.18 604.747 1040.38 606.613 1039.79 608.8C1039.21 610.933 1038.91 613.28 1038.91 615.84V616C1038.91 618.56 1039.21 620.933 1039.79 623.12C1040.38 625.307 1041.21 627.2 1042.27 628.8C1043.34 630.347 1044.62 631.573 1046.11 632.48C1047.66 633.387 1049.37 633.84 1051.23 633.84ZM1051.07 644.96C1047.34 644.96 1043.93 644.24 1040.83 642.8C1037.79 641.307 1035.18 639.28 1032.99 636.72C1030.86 634.107 1029.21 631.04 1028.03 627.52C1026.86 624 1026.27 620.213 1026.27 616.16V616C1026.27 611.947 1026.86 608.16 1028.03 604.64C1029.26 601.12 1030.97 598.053 1033.15 595.44C1035.34 592.827 1037.95 590.773 1040.99 589.28C1044.09 587.787 1047.5 587.04 1051.23 587.04C1054.91 587.04 1058.27 587.787 1061.31 589.28C1064.41 590.72 1067.02 592.747 1069.15 595.36C1071.34 597.92 1073.02 600.96 1074.19 604.48C1075.42 608 1076.03 611.787 1076.03 615.84V616C1076.03 620.053 1075.42 623.84 1074.19 627.36C1073.02 630.88 1071.34 633.947 1069.15 636.56C1066.97 639.173 1064.33 641.227 1061.23 642.72C1058.19 644.213 1054.81 644.96 1051.07 644.96ZM1087.51 634.24L1106.15 618.96C1107.91 617.52 1109.41 616.24 1110.63 615.12C1111.86 613.947 1112.85 612.853 1113.59 611.84C1114.39 610.773 1114.95 609.76 1115.27 608.8C1115.65 607.787 1115.83 606.693 1115.83 605.52C1115.83 603.12 1115.14 601.307 1113.75 600.08C1112.37 598.853 1110.55 598.24 1108.31 598.24C1106.13 598.24 1104.18 598.853 1102.47 600.08C1100.82 601.307 1098.95 603.2 1096.87 605.76L1088.23 598.8C1089.62 596.933 1091.01 595.28 1092.39 593.84C1093.83 592.4 1095.35 591.2 1096.95 590.24C1098.61 589.227 1100.42 588.48 1102.39 588C1104.37 587.467 1106.61 587.2 1109.11 587.2C1111.99 587.2 1114.61 587.627 1116.95 588.48C1119.35 589.28 1121.38 590.427 1123.03 591.92C1124.74 593.413 1126.05 595.227 1126.95 597.36C1127.91 599.493 1128.39 601.867 1128.39 604.48V604.64C1128.39 606.987 1128.07 609.093 1127.43 610.96C1126.85 612.773 1125.94 614.507 1124.71 616.16C1123.54 617.76 1122.02 619.387 1120.15 621.04C1118.29 622.64 1116.13 624.4 1113.67 626.32L1104.55 633.36H1128.95V644H1087.51V634.24ZM1163.28 634.4C1166.32 634.4 1168.66 633.627 1170.32 632.08C1172.02 630.533 1172.88 628.56 1172.88 626.16V626C1172.88 623.6 1172 621.653 1170.24 620.16C1168.53 618.613 1166.16 617.84 1163.12 617.84C1160.08 617.84 1157.7 618.587 1156 620.08C1154.34 621.573 1153.52 623.52 1153.52 625.92V626.08C1153.52 628.48 1154.37 630.48 1156.08 632.08C1157.84 633.627 1160.24 634.4 1163.28 634.4ZM1163.76 644.96C1160.08 644.96 1156.96 644.453 1154.4 643.44C1151.84 642.427 1149.57 640.933 1147.6 638.96C1145.57 636.933 1143.94 634.293 1142.72 631.04C1141.54 627.733 1140.96 623.307 1140.96 617.76V617.6C1140.96 613.28 1141.44 609.253 1142.4 605.52C1143.41 601.787 1144.93 598.56 1146.96 595.84C1148.98 593.12 1151.54 590.987 1154.64 589.44C1157.73 587.84 1161.36 587.04 1165.52 587.04C1167.44 587.04 1169.2 587.173 1170.8 587.44C1172.4 587.707 1173.89 588.107 1175.28 588.64C1176.66 589.173 1178 589.84 1179.28 590.64C1180.56 591.387 1181.81 592.24 1183.04 593.2L1176.56 602.72C1175.65 602.027 1174.77 601.413 1173.92 600.88C1173.06 600.293 1172.18 599.813 1171.28 599.44C1170.37 599.067 1169.41 598.773 1168.4 598.56C1167.38 598.347 1166.29 598.24 1165.12 598.24C1163.36 598.24 1161.81 598.587 1160.48 599.28C1159.2 599.92 1158.08 600.827 1157.12 602C1156.21 603.12 1155.49 604.48 1154.96 606.08C1154.42 607.68 1154.05 609.387 1153.84 611.2C1155.22 610.293 1156.8 609.467 1158.56 608.72C1160.37 607.973 1162.66 607.6 1165.44 607.6C1168.21 607.6 1170.8 608 1173.2 608.8C1175.6 609.547 1177.68 610.667 1179.44 612.16C1181.2 613.653 1182.58 615.52 1183.6 617.76C1184.61 619.947 1185.12 622.507 1185.12 625.44V625.6C1185.12 628.48 1184.56 631.12 1183.44 633.52C1182.37 635.867 1180.88 637.893 1178.96 639.6C1177.09 641.307 1174.85 642.64 1172.24 643.6C1169.62 644.507 1166.8 644.96 1163.76 644.96Z" fill="white"/>
<defs>
<linearGradient id="paint0_linear_1027_3885" x1="600.267" y1="145" x2="851.767" y2="218.5" gradientUnits="userSpaceOnUse">
<stop stop-color="#CCE1F0"/>
<stop offset="1" stop-color="#21669D"/>
</linearGradient>
</defs>
</svg>
