<svg width="1557" height="670" viewBox="0 0 1557 670" fill="none" xmlns="http://www.w3.org/2000/svg">
<path d="M1413.77 173.266C1421.77 139.266 1456.92 107.686 1461.77 118.766C1465.27 126.766 1457.77 143.266 1461.77 143.266C1461.77 143.266 1467.83 139.424 1470.77 138.266C1489.77 130.766 1507.27 129.723 1521.77 136.766C1539.27 145.266 1552.27 160.766 1555.27 181.266C1557.5 196.529 1557.27 209.266 1556.27 225.766C1555.27 242.266 1548.27 330.766 1554.27 351.266C1555.38 355.06 1549.34 357.458 1545.77 355.766C1536.27 351.266 1526.27 334.766 1520.77 315.766C1517.72 305.239 1513.88 280.611 1511.27 256.766C1508.66 232.92 1511.21 195.284 1506.27 188.266C1499.32 178.388 1495.73 176.952 1483.77 175.266C1472.45 173.671 1455.73 179.678 1454.77 185.266C1449.27 217.266 1449.49 245.266 1443.27 279.266C1437.74 309.46 1427.77 358.562 1416.27 353.266C1407.58 349.266 1404.83 315.923 1403.27 291.766C1400.27 245.266 1403.13 218.49 1413.77 173.266Z" fill="white"/>
<path fill-rule="evenodd" clip-rule="evenodd" d="M1285.27 117.267C1291.51 113.521 1305.27 128.141 1308.27 127.767C1312.84 127.195 1317.27 122.312 1323.27 121.767C1330.27 121.13 1344.15 121.451 1347.77 129.266C1350.47 135.115 1346.77 139.266 1343.77 143.266C1339.08 149.514 1332.21 154.308 1333.27 155.766C1337.27 161.266 1379.27 219.266 1379.27 261.766C1379.27 298.766 1372.77 323.646 1346.77 340.767C1332.27 350.312 1319.56 354.791 1302.27 353.266C1268.27 350.265 1238.06 321.272 1233.77 283.266C1230.27 252.266 1232.77 232.765 1242.27 201.266C1254.74 159.908 1286.87 141.193 1286.27 138.766C1285.27 134.767 1283.27 132.766 1282.77 127.767C1282.42 124.284 1282.77 118.767 1285.27 117.267ZM1316.27 172.266C1312.77 172.266 1269.27 234.266 1273.27 275.267C1275.71 300.266 1286.27 322.267 1306.77 322.267C1330.79 322.266 1344.82 297.266 1349.27 273.767C1352.96 254.267 1347.27 228.267 1340.27 212.266C1332.74 195.048 1319.27 172.269 1316.27 172.266Z" fill="white"/>
<path d="M1153.27 286.766C1157.27 240.766 1170.27 199.766 1171.77 155.266C1171.99 148.727 1171.17 141.26 1169.27 133.766C1167.74 127.766 1163.21 123.322 1163.77 121.266C1165.27 115.766 1176.77 116.086 1184.77 118.266C1195.77 121.266 1203.34 128.501 1209.27 139.766C1219.27 158.766 1218.79 189.266 1216.77 199.266C1206.77 248.766 1201.27 260.865 1189.27 301.766C1186.27 311.994 1181.12 327.766 1180.27 334.266C1179.28 341.766 1178.5 352.769 1174.27 353.766C1160.77 356.942 1150.9 313.969 1153.27 286.766Z" fill="white"/>
<path d="M1177.27 7.76584C1176.41 4.76582 1178.27 1.87089 1181.77 0.765871C1191.27 -2.23393 1197.54 4.06113 1203.77 11.2659C1213.27 22.2658 1219.22 28.7367 1224.77 42.2659C1231.14 57.8008 1234.77 76.7659 1231.27 84.7659C1225.59 97.73 1213.1 104.767 1199.27 101.766C1186.56 99.0074 1178.22 92.0332 1177.27 76.7659C1176.77 68.7658 1180.77 47.3028 1180.77 33.7658C1180.77 23.2658 1179.98 17.2658 1177.27 7.76584Z" fill="white"/>
<path d="M1039.26 126.766C1062.26 118.266 1094.26 113.68 1107.76 119.266C1116.58 122.915 1120.95 130.747 1120.26 140.266C1119.57 149.816 1114.17 157.473 1104.76 159.266C1094.27 161.266 1083.27 160.266 1068.26 162.266C1051.51 164.498 1032.9 172.633 1032.26 186.266C1031.77 196.766 1043.4 204.493 1055.27 209.766C1068.77 215.766 1106.57 209.766 1124.76 222.766C1138.68 232.711 1140.67 251.819 1131.76 266.766C1116.27 292.766 1086.77 304.266 1055.26 323.266C1037.95 333.706 1026.77 338.266 1008.27 349.266C996.11 356.495 987.505 363.634 976.766 366.766C972.337 368.057 970.975 361.754 971.266 358.266C971.768 352.266 984.536 334.576 996.261 322.266C1016.26 301.266 1041.35 285.752 1058.26 274.266C1084.76 256.266 1099.77 249.266 1100.77 242.266C1101.55 236.766 1058.26 238.266 1032.26 226.266C1012.1 216.959 999.955 200.401 1001.76 178.266C1003.76 153.766 1015.6 135.511 1039.26 126.766Z" fill="white"/>
<path d="M950.267 135.266C950.587 130.777 948.266 117.377 953.766 116.766C959.266 116.155 974.767 123.766 979.267 142.766C983.767 161.766 983.017 186.266 979.267 204.266C974.268 228.266 967.55 246.792 957.767 273.266C949.268 296.266 932.607 337.908 931.268 343.266C929.268 351.266 923.397 355.766 920.768 353.266C912.768 345.66 911.496 335.51 910.267 320.766C907.266 284.766 912.629 259.742 924.268 224.266C934.766 192.266 948.766 156.266 950.267 135.266Z" fill="white"/>
<path fill-rule="evenodd" clip-rule="evenodd" d="M404.266 120.266C430.266 115.078 450.267 113.266 473.766 121.266C491.283 127.229 502.04 136.342 505.266 153.766C507.766 167.266 501.055 185.566 487.266 198.266C468.266 215.766 456.766 218.766 435.266 226.266C427.262 229.058 418.266 229.266 413.766 230.266C412.555 230.535 412.938 232.515 413.766 233.266C461.766 276.766 483.47 337.086 503.766 360.766C506.766 364.266 496.767 368.034 492.266 366.266C481.863 362.179 476.292 360.805 468.266 353.266C435.267 322.266 420.266 290.766 391.766 259.766C390.95 258.878 388.806 258.853 388.766 260.266C387.766 295.766 377.766 340.266 358.766 352.766C356.677 354.14 353.698 351.306 353.767 348.266C354.767 304.266 355.674 277.766 359.766 232.766C360.203 227.969 347.966 223.266 345.766 217.766C344.634 214.935 344.767 214.266 348.766 214.266H361.766C362.261 214.266 362.766 204.766 364.766 191.266C366.766 177.768 370.163 167.163 369.266 167.266C360.766 168.266 358.498 167.266 353.266 163.266C344.766 156.766 348.593 143.692 353.266 139.766C365.766 129.266 383.423 124.425 404.266 120.266ZM469.267 150.766C461.767 149.266 425.27 153.269 398.268 161.766C396.268 162.396 392.768 206.8 393.767 206.766C415.268 205.767 427.425 204.918 446.267 195.766C463.767 187.266 477.767 169.266 478.267 162.266C478.768 155.266 476.767 152.266 469.267 150.766Z" fill="white"/>
<path fill-rule="evenodd" clip-rule="evenodd" d="M233.769 126.266C242.768 118.357 250.268 114.766 263.268 115.266C272.085 115.605 277.31 118.754 283.768 124.766C298.268 138.266 301.898 149.368 309.268 167.266C322.031 198.266 322.116 228.766 319.768 252.266C317.101 278.954 312.768 294.766 302.268 318.266C295.017 334.493 284.767 353.266 274.768 355.766C271.713 356.529 270.768 352.414 270.768 349.266C270.768 341.266 274.267 326.766 275.768 314.766C277.768 298.767 279.267 272.868 278.268 272.766C263.267 271.266 244.267 267.266 232.268 265.766C230.779 265.58 241.526 324.289 234.769 338.766C231.268 346.266 219.767 353.266 213.268 352.266C203.267 350.727 195.267 342.266 192.768 326.766C189.005 303.435 187.618 279.312 189.768 251.266C192.077 221.139 195.426 199.266 204.269 175.266C211.84 154.716 217.268 140.766 233.769 126.266ZM249.769 168.266C239.7 168.895 233.809 180.766 232.269 187.266C227.765 206.265 227.269 238.727 228.769 238.766C247.768 239.266 262.77 245.766 277.27 246.766C278.268 246.831 275.769 219.265 270.77 200.266C266.91 185.6 257.769 167.766 249.769 168.266Z" fill="white"/>
<path fill-rule="evenodd" clip-rule="evenodd" d="M56.2674 68.2658C73.7673 61.7658 93.7672 57.7658 107.767 60.7658C121.767 63.7658 140.267 75.2659 149.266 89.7658C158.266 104.266 159.766 119.266 159.766 132.766C159.766 138.428 159.767 144.266 157.767 148.766C156.258 152.162 152.984 158.242 147.266 162.266C133.767 171.766 117.767 175.766 112.267 179.766C111.162 180.57 111.544 182.654 112.766 183.266C127.766 190.766 139.262 201.239 149.266 218.266C155.436 228.766 159.659 236.684 160.267 249.766C161.267 271.266 157.766 288.266 149.266 306.266C135.99 334.38 124.266 346.945 97.2664 364.266C78.5962 376.243 60.2673 377.266 41.7674 373.766C31.8318 371.886 20.2671 362.766 11.2674 351.266C7.31167 346.211 5.76645 342.766 4.26735 337.266C2.76828 331.766 2.26759 327.266 1.26735 320.266C0.267126 313.266 -0.396926 299.533 0.267353 286.266C1.26877 266.266 2.55036 251.291 4.26735 235.266C6.77301 211.88 8.63021 187.918 14.2674 156.766C16.0833 146.731 21.7672 134.199 26.7674 134.766C33.2669 135.504 34.3509 147.601 35.2674 156.766C36.7674 171.766 35.4925 193.54 36.7674 192.266C41.2679 187.766 47.7561 183.799 52.7674 180.766C71.7674 169.266 82.815 165.472 105.767 156.766C120.268 151.266 127.768 147.766 141.267 141.266C143.267 140.303 144.574 137.185 143.767 134.766C141.767 128.766 138.767 124.766 132.767 119.766C121.281 110.194 109.266 106.766 98.2664 105.766C87.2666 104.766 65.1889 105.806 46.2674 115.266C41.2671 117.766 36.7664 120.766 29.7664 120.766C23.8152 120.766 21.2674 115.266 21.2674 109.766C21.2674 104.265 26.7676 80.2656 56.2674 68.2658ZM106.267 226.766C86.8849 217.368 65.2668 217.764 35.7674 222.266C34.2673 222.495 32.1566 248.969 30.7674 262.266C28.2433 286.424 24.1966 317.361 26.2674 318.766C43.267 330.266 49.9602 332.38 66.2674 333.766C92.1703 335.967 111.766 330.266 126.766 312.266C139.539 296.938 145.452 278.766 140.266 262.266C134.636 244.352 122.766 234.766 106.267 226.766Z" fill="white"/>
<path d="M718.267 20.7658C716.373 19.5766 714.176 20.1033 712.267 21.2658C643.266 63.2658 593.767 105.766 544.766 146.266C542.509 148.132 543.002 151.439 543.767 154.266C566.766 239.266 588.267 291.266 610.767 348.266C611.943 351.245 614.065 353.188 617.267 353.266C699.268 355.266 741.268 355.266 822.767 350.766C826.903 350.538 829.342 347.655 830.767 343.766C856.766 272.766 868.267 228.266 889.267 150.266C889.927 147.815 890.76 143.337 888.767 141.766C820.267 87.766 782.767 61.2659 718.267 20.7658Z" fill="white"/>
<path d="M786.268 132.266C763.268 102.766 738.269 74.2658 735.768 74.2658C732.268 74.2658 707.767 97.7658 688.268 106.266C669.268 114.548 658.603 116.171 640.269 124.766C624.27 132.266 600.991 143.766 600.768 145.766C600.545 147.766 614.766 186.266 615.767 208.266C616.704 228.842 617.252 245.57 618.769 262.766C620.269 279.766 622.47 295.266 624.768 296.766C626.269 297.745 643.691 295.931 655.768 296.766C677.269 298.252 693.021 300.01 712.769 306.766C722.269 310.016 737.769 312.626 750.769 316.266C760.491 318.988 776.943 322.561 778.268 321.766C780.767 320.266 784.542 292.381 792.267 275.266C800.768 256.433 806.365 247.632 818.767 230.266C828.766 216.266 842.769 189.266 844.268 182.766C844.845 180.266 809.269 161.766 786.268 132.266Z" fill="url(#paint0_linear_9_35562)"/>
<path d="M275.896 529.016C269.23 529.016 262.688 527.891 256.271 525.641C249.855 523.307 244.021 519.766 238.771 515.016L250.146 501.391C254.146 504.641 258.23 507.224 262.396 509.141C266.646 511.057 271.271 512.016 276.271 512.016C280.271 512.016 283.355 511.307 285.521 509.891C287.771 508.391 288.896 506.349 288.896 503.766V503.516C288.896 502.266 288.646 501.182 288.146 500.266C287.73 499.266 286.855 498.349 285.521 497.516C284.271 496.682 282.48 495.849 280.146 495.016C277.896 494.182 274.938 493.307 271.271 492.391C266.855 491.307 262.855 490.099 259.271 488.766C255.688 487.432 252.646 485.807 250.146 483.891C247.646 481.891 245.688 479.432 244.271 476.516C242.938 473.599 242.271 469.974 242.271 465.641V465.391C242.271 461.391 243.021 457.807 244.521 454.641C246.021 451.391 248.105 448.599 250.771 446.266C253.521 443.932 256.771 442.141 260.521 440.891C264.271 439.641 268.396 439.016 272.896 439.016C279.313 439.016 285.188 439.974 290.521 441.891C295.938 443.807 300.896 446.557 305.396 450.141L295.396 464.641C291.48 461.974 287.646 459.891 283.896 458.391C280.146 456.807 276.396 456.016 272.646 456.016C268.896 456.016 266.063 456.766 264.146 458.266C262.313 459.682 261.396 461.474 261.396 463.641V463.891C261.396 465.307 261.646 466.557 262.146 467.641C262.73 468.641 263.73 469.557 265.146 470.391C266.563 471.224 268.48 472.016 270.896 472.766C273.396 473.516 276.521 474.391 280.271 475.391C284.688 476.557 288.605 477.891 292.021 479.391C295.521 480.807 298.438 482.557 300.771 484.641C303.188 486.641 304.98 489.016 306.146 491.766C307.396 494.516 308.021 497.807 308.021 501.641V501.891C308.021 506.224 307.23 510.099 305.646 513.516C304.063 516.849 301.855 519.682 299.021 522.016C296.188 524.266 292.813 526.016 288.896 527.266C284.98 528.432 280.646 529.016 275.896 529.016Z" fill="white"/>
<path d="M372.478 511.516C376.311 511.516 379.853 510.807 383.103 509.391C386.353 507.974 389.103 506.016 391.353 503.516C393.686 501.016 395.478 498.141 396.728 494.891C398.061 491.557 398.728 488.016 398.728 484.266V484.016C398.728 480.266 398.061 476.724 396.728 473.391C395.478 470.057 393.644 467.141 391.228 464.641C388.894 462.141 386.103 460.182 382.853 458.766C379.603 457.266 376.061 456.516 372.228 456.516C368.311 456.516 364.728 457.224 361.478 458.641C358.311 460.057 355.561 462.016 353.228 464.516C350.978 467.016 349.186 469.932 347.853 473.266C346.603 476.516 345.978 480.016 345.978 483.766V484.016C345.978 487.766 346.603 491.307 347.853 494.641C349.186 497.974 351.019 500.891 353.353 503.391C355.769 505.891 358.561 507.891 361.728 509.391C364.978 510.807 368.561 511.516 372.478 511.516ZM372.228 529.266C365.478 529.266 359.269 528.099 353.603 525.766C347.936 523.349 343.019 520.141 338.853 516.141C334.769 512.057 331.561 507.307 329.228 501.891C326.978 496.391 325.853 490.516 325.853 484.266V484.016C325.853 477.766 327.019 471.932 329.353 466.516C331.686 461.016 334.894 456.224 338.978 452.141C343.144 447.974 348.061 444.724 353.728 442.391C359.478 439.974 365.728 438.766 372.478 438.766C379.228 438.766 385.436 439.974 391.103 442.391C396.769 444.724 401.644 447.932 405.728 452.016C409.894 456.016 413.103 460.766 415.353 466.266C417.686 471.682 418.853 477.516 418.853 483.766V484.016C418.853 490.266 417.686 496.141 415.353 501.641C413.019 507.057 409.769 511.849 405.603 516.016C401.519 520.099 396.603 523.349 390.853 525.766C385.186 528.099 378.978 529.266 372.228 529.266Z" fill="white"/>
<path d="M440.929 440.266H458.679L499.679 494.141V440.266H518.679V527.766H502.304L459.929 472.141V527.766H440.929V440.266Z" fill="white"/>
<path d="M586.809 529.266C579.975 529.266 573.725 528.141 568.059 525.891C562.475 523.641 557.642 520.516 553.559 516.516C549.559 512.516 546.434 507.766 544.184 502.266C541.934 496.766 540.809 490.766 540.809 484.266V484.016C540.809 477.766 541.934 471.932 544.184 466.516C546.517 461.016 549.725 456.224 553.809 452.141C557.892 447.974 562.725 444.724 568.309 442.391C573.892 439.974 580.017 438.766 586.684 438.766C590.6 438.766 594.142 439.057 597.309 439.641C600.559 440.141 603.559 440.891 606.309 441.891C609.059 442.891 611.642 444.141 614.059 445.641C616.475 447.141 618.809 448.849 621.059 450.766L608.934 465.391C607.267 463.974 605.6 462.724 603.934 461.641C602.267 460.557 600.517 459.641 598.684 458.891C596.934 458.141 595.017 457.557 592.934 457.141C590.85 456.724 588.559 456.516 586.059 456.516C582.559 456.516 579.267 457.266 576.184 458.766C573.184 460.182 570.517 462.141 568.184 464.641C565.934 467.057 564.142 469.932 562.809 473.266C561.559 476.516 560.934 480.016 560.934 483.766V484.016C560.934 488.016 561.559 491.724 562.809 495.141C564.142 498.474 565.975 501.391 568.309 503.891C570.725 506.391 573.517 508.349 576.684 509.766C579.934 511.099 583.517 511.766 587.434 511.766C594.6 511.766 600.642 510.016 605.559 506.516V494.016H586.184V477.391H624.184V515.391C619.684 519.224 614.309 522.516 608.059 525.266C601.892 527.932 594.809 529.266 586.809 529.266Z" fill="white"/>
<path d="M731.182 529.266C724.765 529.266 718.807 528.099 713.307 525.766C707.807 523.432 703.057 520.266 699.057 516.266C695.057 512.182 691.932 507.391 689.682 501.891C687.432 496.391 686.307 490.516 686.307 484.266V484.016C686.307 477.766 687.432 471.932 689.682 466.516C691.932 461.016 695.057 456.224 699.057 452.141C703.057 447.974 707.848 444.724 713.432 442.391C719.015 439.974 725.182 438.766 731.932 438.766C736.015 438.766 739.723 439.099 743.057 439.766C746.473 440.432 749.557 441.349 752.307 442.516C755.057 443.682 757.598 445.099 759.932 446.766C762.265 448.432 764.432 450.266 766.432 452.266L754.182 466.391C750.765 463.307 747.265 460.891 743.682 459.141C740.182 457.391 736.223 456.516 731.807 456.516C728.14 456.516 724.723 457.224 721.557 458.641C718.473 460.057 715.807 462.016 713.557 464.516C711.307 467.016 709.557 469.932 708.307 473.266C707.057 476.516 706.432 480.016 706.432 483.766V484.016C706.432 487.766 707.057 491.307 708.307 494.641C709.557 497.974 711.265 500.891 713.432 503.391C715.682 505.891 718.348 507.891 721.432 509.391C724.598 510.807 728.057 511.516 731.807 511.516C736.807 511.516 741.015 510.599 744.432 508.766C747.932 506.932 751.39 504.432 754.807 501.266L767.057 513.641C764.807 516.057 762.473 518.224 760.057 520.141C757.64 522.057 754.973 523.724 752.057 525.141C749.223 526.474 746.098 527.474 742.682 528.141C739.265 528.891 735.432 529.266 731.182 529.266Z" fill="white"/>
<path d="M830.217 511.516C834.05 511.516 837.592 510.807 840.842 509.391C844.092 507.974 846.842 506.016 849.092 503.516C851.425 501.016 853.217 498.141 854.467 494.891C855.8 491.557 856.467 488.016 856.467 484.266V484.016C856.467 480.266 855.8 476.724 854.467 473.391C853.217 470.057 851.383 467.141 848.967 464.641C846.633 462.141 843.842 460.182 840.592 458.766C837.342 457.266 833.8 456.516 829.967 456.516C826.05 456.516 822.467 457.224 819.217 458.641C816.05 460.057 813.3 462.016 810.967 464.516C808.717 467.016 806.925 469.932 805.592 473.266C804.342 476.516 803.717 480.016 803.717 483.766V484.016C803.717 487.766 804.342 491.307 805.592 494.641C806.925 497.974 808.758 500.891 811.092 503.391C813.508 505.891 816.3 507.891 819.467 509.391C822.717 510.807 826.3 511.516 830.217 511.516ZM829.967 529.266C823.217 529.266 817.008 528.099 811.342 525.766C805.675 523.349 800.758 520.141 796.592 516.141C792.508 512.057 789.3 507.307 786.967 501.891C784.717 496.391 783.592 490.516 783.592 484.266V484.016C783.592 477.766 784.758 471.932 787.092 466.516C789.425 461.016 792.633 456.224 796.717 452.141C800.883 447.974 805.8 444.724 811.467 442.391C817.217 439.974 823.467 438.766 830.217 438.766C836.967 438.766 843.175 439.974 848.842 442.391C854.508 444.724 859.383 447.932 863.467 452.016C867.633 456.016 870.842 460.766 873.092 466.266C875.425 471.682 876.592 477.516 876.592 483.766V484.016C876.592 490.266 875.425 496.141 873.092 501.641C870.758 507.057 867.508 511.849 863.342 516.016C859.258 520.099 854.342 523.349 848.592 525.766C842.925 528.099 836.717 529.266 829.967 529.266Z" fill="white"/>
<path d="M898.668 440.266H916.418L957.418 494.141V440.266H976.418V527.766H960.043L917.668 472.141V527.766H898.668V440.266Z" fill="white"/>
<path d="M1022.8 458.016H996.173V440.266H1068.67V458.016H1042.05V527.766H1022.8V458.016Z" fill="white"/>
<path d="M1088.48 440.266H1154.48V457.391H1107.6V475.141H1148.85V492.266H1107.6V510.641H1155.1V527.766H1088.48V440.266Z" fill="white"/>
<path d="M1208.34 529.016C1201.68 529.016 1195.13 527.891 1188.72 525.641C1182.3 523.307 1176.47 519.766 1171.22 515.016L1182.59 501.391C1186.59 504.641 1190.68 507.224 1194.84 509.141C1199.09 511.057 1203.72 512.016 1208.72 512.016C1212.72 512.016 1215.8 511.307 1217.97 509.891C1220.22 508.391 1221.34 506.349 1221.34 503.766V503.516C1221.34 502.266 1221.09 501.182 1220.59 500.266C1220.18 499.266 1219.3 498.349 1217.97 497.516C1216.72 496.682 1214.93 495.849 1212.59 495.016C1210.34 494.182 1207.38 493.307 1203.72 492.391C1199.3 491.307 1195.3 490.099 1191.72 488.766C1188.13 487.432 1185.09 485.807 1182.59 483.891C1180.09 481.891 1178.13 479.432 1176.72 476.516C1175.38 473.599 1174.72 469.974 1174.72 465.641V465.391C1174.72 461.391 1175.47 457.807 1176.97 454.641C1178.47 451.391 1180.55 448.599 1183.22 446.266C1185.97 443.932 1189.22 442.141 1192.97 440.891C1196.72 439.641 1200.84 439.016 1205.34 439.016C1211.76 439.016 1217.63 439.974 1222.97 441.891C1228.38 443.807 1233.34 446.557 1237.84 450.141L1227.84 464.641C1223.93 461.974 1220.09 459.891 1216.34 458.391C1212.59 456.807 1208.84 456.016 1205.09 456.016C1201.34 456.016 1198.51 456.766 1196.59 458.266C1194.76 459.682 1193.84 461.474 1193.84 463.641V463.891C1193.84 465.307 1194.09 466.557 1194.59 467.641C1195.18 468.641 1196.18 469.557 1197.59 470.391C1199.01 471.224 1200.93 472.016 1203.34 472.766C1205.84 473.516 1208.97 474.391 1212.72 475.391C1217.13 476.557 1221.05 477.891 1224.47 479.391C1227.97 480.807 1230.88 482.557 1233.22 484.641C1235.63 486.641 1237.43 489.016 1238.59 491.766C1239.84 494.516 1240.47 497.807 1240.47 501.641V501.891C1240.47 506.224 1239.68 510.099 1238.09 513.516C1236.51 516.849 1234.3 519.682 1231.47 522.016C1228.63 524.266 1225.26 526.016 1221.34 527.266C1217.43 528.432 1213.09 529.016 1208.34 529.016Z" fill="white"/>
<path d="M1282.55 458.016H1255.92V440.266H1328.42V458.016H1301.8V527.766H1282.55V458.016Z" fill="white"/>
<path d="M454.977 606.886H437.217V597.766H482.657V606.886H464.897V653.766H454.977V606.886ZM523.172 645.686C525.946 645.686 528.479 645.179 530.772 644.166C533.119 643.099 535.119 641.686 536.772 639.926C538.426 638.113 539.706 636.006 540.612 633.606C541.572 631.206 542.052 628.646 542.052 625.926V625.766C542.052 623.046 541.572 620.486 540.612 618.086C539.706 615.633 538.399 613.526 536.692 611.766C535.039 609.953 533.039 608.513 530.692 607.446C528.346 606.379 525.786 605.846 523.012 605.846C520.239 605.846 517.679 606.379 515.332 607.446C513.039 608.459 511.066 609.873 509.412 611.686C507.759 613.446 506.452 615.526 505.492 617.926C504.586 620.326 504.132 622.886 504.132 625.606V625.766C504.132 628.486 504.586 631.073 505.492 633.526C506.452 635.926 507.759 638.033 509.412 639.846C511.119 641.606 513.146 643.019 515.492 644.086C517.839 645.153 520.399 645.686 523.172 645.686ZM523.012 654.726C518.692 654.726 514.746 653.979 511.172 652.486C507.599 650.939 504.532 648.859 501.972 646.246C499.412 643.633 497.412 640.593 495.972 637.126C494.532 633.606 493.812 629.873 493.812 625.926V625.766C493.812 621.819 494.532 618.113 495.972 614.646C497.412 611.126 499.439 608.059 502.052 605.446C504.666 602.779 507.759 600.673 511.332 599.126C514.906 597.579 518.852 596.806 523.172 596.806C527.492 596.806 531.439 597.579 535.012 599.126C538.586 600.619 541.652 602.673 544.212 605.286C546.772 607.899 548.772 610.966 550.212 614.486C551.652 617.953 552.372 621.659 552.372 625.606V625.766C552.372 629.713 551.652 633.446 550.212 636.966C548.772 640.433 546.746 643.499 544.132 646.166C541.519 648.779 538.426 650.859 534.852 652.406C531.279 653.953 527.332 654.726 523.012 654.726ZM567.461 597.766H576.581L606.581 636.486V597.766H616.261V653.766H608.021L577.141 613.926V653.766H567.461V597.766ZM660.424 654.726C656.051 654.726 652.077 654.006 648.504 652.566C644.931 651.073 641.864 649.046 639.304 646.486C636.797 643.873 634.851 640.833 633.464 637.366C632.077 633.846 631.384 630.033 631.384 625.926V625.766C631.384 621.873 632.077 618.166 633.464 614.646C634.904 611.126 636.904 608.059 639.464 605.446C642.024 602.779 645.064 600.673 648.584 599.126C652.157 597.579 656.051 596.806 660.264 596.806C662.717 596.806 664.931 596.993 666.904 597.366C668.931 597.686 670.797 598.166 672.504 598.806C674.211 599.446 675.811 600.246 677.304 601.206C678.851 602.113 680.344 603.179 681.784 604.406L675.544 611.846C674.477 610.939 673.384 610.113 672.264 609.366C671.144 608.619 669.971 608.006 668.744 607.526C667.517 606.993 666.157 606.593 664.664 606.326C663.224 606.006 661.624 605.846 659.864 605.846C657.304 605.846 654.904 606.379 652.664 607.446C650.477 608.513 648.557 609.953 646.904 611.766C645.304 613.526 644.024 615.606 643.064 618.006C642.157 620.406 641.704 622.939 641.704 625.606V625.766C641.704 628.646 642.157 631.313 643.064 633.766C643.971 636.219 645.251 638.326 646.904 640.086C648.611 641.846 650.611 643.233 652.904 644.246C655.251 645.259 657.864 645.766 660.744 645.766C663.411 645.766 665.891 645.393 668.184 644.646C670.531 643.846 672.557 642.806 674.264 641.526V631.046H659.944V622.486H683.784V646.006C682.397 647.179 680.851 648.299 679.144 649.366C677.491 650.433 675.677 651.366 673.704 652.166C671.784 652.966 669.704 653.579 667.464 654.006C665.224 654.486 662.877 654.726 660.424 654.726ZM699.798 597.766H709.638V621.046H736.358V597.766H746.198V653.766H736.358V630.166H709.638V653.766H699.798V597.766ZM786.74 654.646C783.113 654.646 779.833 654.139 776.9 653.126C773.966 652.059 771.46 650.486 769.38 648.406C767.3 646.326 765.7 643.766 764.58 640.726C763.46 637.633 762.9 634.059 762.9 630.006V597.766H772.74V629.606C772.74 634.833 773.993 638.806 776.5 641.526C779.006 644.246 782.473 645.606 786.9 645.606C791.273 645.606 794.713 644.299 797.22 641.686C799.726 639.073 800.98 635.179 800.98 630.006V597.766H810.82V629.526C810.82 633.686 810.233 637.339 809.06 640.486C807.94 643.633 806.34 646.273 804.26 648.406C802.18 650.486 799.646 652.059 796.66 653.126C793.726 654.139 790.42 654.646 786.74 654.646ZM861.447 631.526L851.767 609.126L842.167 631.526H861.447ZM847.367 597.366H856.487L881.127 653.766H870.727L865.047 640.246H838.567L832.807 653.766H822.727L847.367 597.366ZM917.834 646.006L937.114 629.606C939.034 628.006 940.661 626.566 941.994 625.286C943.327 623.953 944.394 622.699 945.194 621.526C946.047 620.353 946.661 619.206 947.034 618.086C947.407 616.966 947.594 615.766 947.594 614.486C947.594 611.713 946.714 609.579 944.954 608.086C943.247 606.539 941.114 605.766 938.554 605.766C935.994 605.766 933.727 606.459 931.754 607.846C929.834 609.233 927.781 611.339 925.594 614.166L918.634 608.726C919.967 606.859 921.327 605.206 922.714 603.766C924.101 602.273 925.594 601.046 927.194 600.086C928.847 599.073 930.634 598.299 932.554 597.766C934.527 597.233 936.767 596.966 939.274 596.966C941.994 596.966 944.474 597.366 946.714 598.166C949.007 598.966 950.954 600.113 952.554 601.606C954.207 603.046 955.487 604.806 956.394 606.886C957.301 608.913 957.754 611.179 957.754 613.686V613.846C957.754 616.033 957.461 618.033 956.874 619.846C956.287 621.606 955.381 623.313 954.154 624.966C952.981 626.619 951.461 628.299 949.594 630.006C947.781 631.659 945.647 633.499 943.194 635.526L931.674 645.126H958.314V653.766H917.834V646.006ZM995.217 645.846C997.403 645.846 999.35 645.339 1001.06 644.326C1002.82 643.259 1004.31 641.846 1005.54 640.086C1006.76 638.273 1007.7 636.166 1008.34 633.766C1009.03 631.313 1009.38 628.699 1009.38 625.926V625.766C1009.38 622.993 1009.03 620.406 1008.34 618.006C1007.64 615.553 1006.68 613.419 1005.46 611.606C1004.23 609.793 1002.71 608.353 1000.9 607.286C999.137 606.219 997.19 605.686 995.057 605.686C992.87 605.686 990.897 606.219 989.137 607.286C987.43 608.299 985.963 609.713 984.737 611.526C983.51 613.286 982.55 615.393 981.857 617.846C981.217 620.246 980.897 622.833 980.897 625.606V625.766C980.897 628.539 981.217 631.153 981.857 633.606C982.55 636.006 983.51 638.113 984.737 639.926C986.017 641.739 987.537 643.179 989.297 644.246C991.057 645.313 993.03 645.846 995.217 645.846ZM995.057 654.726C991.377 654.726 988.043 653.979 985.057 652.486C982.07 650.993 979.51 648.939 977.377 646.326C975.243 643.713 973.59 640.673 972.417 637.206C971.297 633.686 970.737 629.926 970.737 625.926V625.766C970.737 621.766 971.323 618.006 972.497 614.486C973.67 610.966 975.323 607.899 977.457 605.286C979.59 602.673 982.15 600.619 985.137 599.126C988.177 597.579 991.537 596.806 995.217 596.806C998.897 596.806 1002.23 597.553 1005.22 599.046C1008.2 600.539 1010.74 602.593 1012.82 605.206C1014.95 607.819 1016.6 610.886 1017.78 614.406C1018.95 617.873 1019.54 621.606 1019.54 625.606V625.766C1019.54 629.766 1018.95 633.526 1017.78 637.046C1016.6 640.566 1014.95 643.633 1012.82 646.246C1010.68 648.859 1008.1 650.939 1005.06 652.486C1002.07 653.979 998.737 654.726 995.057 654.726ZM1031.19 646.006L1050.47 629.606C1052.39 628.006 1054.01 626.566 1055.35 625.286C1056.68 623.953 1057.75 622.699 1058.55 621.526C1059.4 620.353 1060.01 619.206 1060.39 618.086C1060.76 616.966 1060.95 615.766 1060.95 614.486C1060.95 611.713 1060.07 609.579 1058.31 608.086C1056.6 606.539 1054.47 605.766 1051.91 605.766C1049.35 605.766 1047.08 606.459 1045.11 607.846C1043.19 609.233 1041.13 611.339 1038.95 614.166L1031.99 608.726C1033.32 606.859 1034.68 605.206 1036.07 603.766C1037.45 602.273 1038.95 601.046 1040.55 600.086C1042.2 599.073 1043.99 598.299 1045.91 597.766C1047.88 597.233 1050.12 596.966 1052.63 596.966C1055.35 596.966 1057.83 597.366 1060.07 598.166C1062.36 598.966 1064.31 600.113 1065.91 601.606C1067.56 603.046 1068.84 604.806 1069.75 606.886C1070.65 608.913 1071.11 611.179 1071.11 613.686V613.846C1071.11 616.033 1070.81 618.033 1070.23 619.846C1069.64 621.606 1068.73 623.313 1067.51 624.966C1066.33 626.619 1064.81 628.299 1062.95 630.006C1061.13 631.659 1059 633.499 1056.55 635.526L1045.03 645.126H1071.67V653.766H1031.19V646.006ZM1112.49 633.126V610.966L1094.09 633.126H1112.49ZM1112.49 641.206H1084.25L1082.41 634.166L1113.53 597.366H1121.93V633.126H1129.93V641.206H1121.93V653.766H1112.49V641.206Z" fill="white"/>
<defs>
<linearGradient id="paint0_linear_9_35562" x1="600.268" y1="144.766" x2="851.768" y2="218.266" gradientUnits="userSpaceOnUse">
<stop stop-color="#CCE1F0"/>
<stop offset="1" stop-color="#21669D"/>
</linearGradient>
</defs>
</svg>
