<svg width="347" height="335" viewBox="0 0 347 335" fill="none" xmlns="http://www.w3.org/2000/svg">
<path d="M175.142 0.672622C173.248 -0.516584 171.051 0.0100728 169.142 1.17256C100.141 43.1726 50.6416 85.6726 1.64122 126.173C-0.616384 128.039 -0.123012 131.345 0.641992 134.173C23.6415 219.173 45.1424 271.173 67.642 328.173C68.8178 331.152 70.9404 333.095 74.142 333.173C156.143 335.173 198.143 335.173 279.642 330.673C283.778 330.444 286.217 327.562 287.642 323.673C313.642 252.673 325.142 208.173 346.142 130.173C346.802 127.722 347.635 123.244 345.642 121.673C277.142 67.6728 239.642 41.1727 175.142 0.672622Z" fill="white"/>
<path d="M243.143 112.173C220.143 82.6726 195.144 54.1726 192.643 54.1726C189.143 54.1726 164.642 77.6726 145.143 86.1726C126.143 94.4549 115.478 96.0783 97.1442 104.673C81.1451 112.173 57.8662 123.673 57.6432 125.673C57.4202 127.673 71.6414 166.173 72.6424 188.173C73.5786 208.749 74.1266 225.477 75.6439 242.673C77.1439 259.673 79.3454 275.173 81.6432 276.673C83.1439 277.652 100.566 275.838 112.643 276.673C134.144 278.159 149.896 279.917 169.644 286.673C179.144 289.923 194.644 292.533 207.644 296.173C217.366 298.895 233.818 302.467 235.143 301.673C237.642 300.173 241.417 272.287 249.142 255.173C257.643 236.34 263.24 227.539 275.642 210.173C285.641 196.173 299.644 169.173 301.143 162.673C301.72 160.173 266.144 141.673 243.143 112.173Z" fill="url(#paint0_linear_269_141)"/>
<defs>
<linearGradient id="paint0_linear_269_141" x1="57.1426" y1="124.673" x2="308.643" y2="198.173" gradientUnits="userSpaceOnUse">
<stop stop-color="#CCE1F0"/>
<stop offset="1" stop-color="#21669D"/>
</linearGradient>
</defs>
</svg>
