<svg width="770" height="746" viewBox="0 0 770 746" fill="none" xmlns="http://www.w3.org/2000/svg">
<path d="M387.903 15.0204C392.208 12.8947 396.69 11.9405 400.817 14.3965C542.26 98.5777 620.627 159.145 757.684 286.872C761.672 290.589 759.482 299.875 758.121 305.154C714.812 473.06 687.145 567.802 618.062 716.07C614.305 724.133 609.258 730.2 600.368 730.494C425.028 736.292 334.86 733.788 159.125 720.458C152.268 719.938 148.169 715.598 145.55 709.239C95.0684 586.7 53.9544 473.223 16.2905 287.844C15.0382 281.679 14.3152 274.906 19.0353 270.748C121.283 180.687 230.374 92.803 387.903 15.0204ZM424.598 105.424C416.477 105.566 360.587 161.078 315.693 181.587C271.949 201.571 247.272 205.77 205.087 226.451C168.273 244.498 114.733 272.121 114.296 276.77C113.86 281.419 148.411 370.162 151.625 421.162C154.63 468.86 156.579 507.647 160.795 547.479C164.963 586.858 170.699 622.729 176.09 626.116C179.611 628.328 219.957 623.412 248.01 624.86C297.951 627.438 334.568 630.879 380.655 645.752C402.827 652.907 438.892 658.335 469.199 666.253C491.864 672.175 530.178 679.797 533.218 677.899C538.956 674.316 546.585 609.472 563.815 569.453C582.773 525.418 595.4 504.773 623.471 463.981C646.101 431.096 677.494 367.89 680.709 352.749C681.946 346.925 598.662 305.446 544.106 237.938C489.551 170.43 430.401 105.325 424.598 105.424Z" fill="white"/>
</svg>
